<?xml version="1.0" encoding="UTF-8"?>
<svg xmlns="http://www.w3.org/2000/svg" xmlns:xlink="http://www.w3.org/1999/xlink" width="288px" height="252px" viewBox="0 0 288 252" version="1.1" id="Fig:dens">
  <metadata xmlns:gridsvg="http://www.stat.auckland.ac.nz/~paul/R/gridSVG/">
    <gridsvg:generator name="gridSVG" version="1.7-1" time="2020-04-19 17:46:30"/>
    <gridsvg:argument name="name" value="~/Desktop/PEC1_OMICS/results/QCDir.Norm2/dens.svg"/>
    <gridsvg:argument name="exportCoords" value="none"/>
    <gridsvg:argument name="exportMappings" value="none"/>
    <gridsvg:argument name="exportJS" value="none"/>
    <gridsvg:argument name="res" value="72"/>
    <gridsvg:argument name="prefix" value="Fig:dens"/>
    <gridsvg:argument name="addClasses" value="FALSE"/>
    <gridsvg:argument name="indent" value="TRUE"/>
    <gridsvg:argument name="htmlWrapper" value="FALSE"/>
    <gridsvg:argument name="usePaths" value="none"/>
    <gridsvg:argument name="uniqueNames" value="TRUE"/>
    <gridsvg:separator name="id.sep" value="."/>
    <gridsvg:separator name="gPath.sep" value="::"/>
    <gridsvg:separator name="vpPath.sep" value="::"/>
  </metadata>
  <g transform="translate(0, 252) scale(1, -1)">
    <g id="Fig:densgridSVG" fill="none" stroke="rgb(0,0,0)" stroke-dasharray="none" stroke-width="0.75" font-size="12" font-family="Helvetica, Arial, FreeSans, Liberation Sans, Nimbus Sans L, sans-serif" opacity="1" stroke-linecap="round" stroke-linejoin="round" stroke-miterlimit="10" stroke-opacity="1" fill-opacity="0" font-weight="normal" font-style="normal">
      <g id="Fig:densplot_01.background.1">
        <rect id="Fig:densplot_01.background.1.1" x="0" y="0" width="288" height="252" transform="" fill="none" stroke="none" stroke-opacity="0" fill-opacity="0"/>
      </g>
      <g id="Fig:densplot_01.toplevel.vp.1" font-size="12">
        <g id="Fig:densplot_01.ylab.vp.1">
          <g id="Fig:densplot_01.ylab.1">
            <g id="Fig:densplot_01.ylab.1.1" transform="translate(10.31, 138.09)" stroke-width="0.1">
              <g id="Fig:densplot_01.ylab.1.1.scale" transform="scale(1, -1)">
                <text x="0" y="0" id="Fig:densplot_01.ylab.1.1.text" transform="rotate(-90)" text-anchor="middle" opacity="1" stroke="rgb(0,0,0)" fill="rgb(0,0,0)" stroke-opacity="1" fill-opacity="1" font-size="12" font-weight="normal" font-style="normal">
                  <tspan id="Fig:densplot_01.ylab.1.1.tspan.1" dy="4.31" x="0">Density</tspan>
                </text>
              </g>
            </g>
          </g>
        </g>
        <g id="Fig:densplot_01.figure.vp.1"/>
        <defs>
          <clipPath id="Fig:densplot_01.panel.1.1.vp.1.clipPath">
            <rect x="44.8" y="42.19" width="231.2" height="191.81" fill="none" stroke="none"/>
          </clipPath>
        </defs>
        <g id="Fig:densplot_01.panel.1.1.vp.1" clip-path="url(#Fig:densplot_01.panel.1.1.vp.1.clipPath)"/>
        <g id="Fig:densplot_01.strip.1.1.off.vp.1"/>
        <g id="Fig:densplot_01.strip.left.1.1.off.vp.1">
          <g id="Fig:densplot_01.ticks.left.panel.1.1.1">
            <polyline id="Fig:densplot_01.ticks.left.panel.1.1.1.1" points="44.8,53.95 39.13,53.95" stroke="rgb(0,0,0)" opacity="1" stroke-dasharray="none" stroke-width="0.75" stroke-opacity="1" fill="none"/>
            <polyline id="Fig:densplot_01.ticks.left.panel.1.1.1.2" points="44.8,96.01 39.13,96.01" stroke="rgb(0,0,0)" opacity="1" stroke-dasharray="none" stroke-width="0.75" stroke-opacity="1" fill="none"/>
            <polyline id="Fig:densplot_01.ticks.left.panel.1.1.1.3" points="44.8,138.06 39.13,138.06" stroke="rgb(0,0,0)" opacity="1" stroke-dasharray="none" stroke-width="0.75" stroke-opacity="1" fill="none"/>
            <polyline id="Fig:densplot_01.ticks.left.panel.1.1.1.4" points="44.8,180.11 39.13,180.11" stroke="rgb(0,0,0)" opacity="1" stroke-dasharray="none" stroke-width="0.75" stroke-opacity="1" fill="none"/>
            <polyline id="Fig:densplot_01.ticks.left.panel.1.1.1.5" points="44.8,222.17 39.13,222.17" stroke="rgb(0,0,0)" opacity="1" stroke-dasharray="none" stroke-width="0.75" stroke-opacity="1" fill="none"/>
          </g>
          <g id="Fig:densplot_01.ticklabels.left.panel.1.1.1">
            <g id="Fig:densplot_01.ticklabels.left.panel.1.1.1.1" transform="translate(33.47, 53.95)" stroke-width="0.1">
              <g id="Fig:densplot_01.ticklabels.left.panel.1.1.1.1.scale" transform="scale(1, -1)">
                <text x="0" y="0" id="Fig:densplot_01.ticklabels.left.panel.1.1.1.1.text" transform="rotate(-90)" text-anchor="middle" stroke="rgb(0,0,0)" opacity="1" fill="rgb(0,0,0)" stroke-opacity="1" fill-opacity="1" font-size="9.6" font-weight="normal" font-style="normal">
                  <tspan id="Fig:densplot_01.ticklabels.left.panel.1.1.1.1.tspan.1" dy="0" x="0">0.00</tspan>
                </text>
              </g>
            </g>
            <g id="Fig:densplot_01.ticklabels.left.panel.1.1.1.2" transform="translate(33.47, 96.01)" stroke-width="0.1">
              <g id="Fig:densplot_01.ticklabels.left.panel.1.1.1.2.scale" transform="scale(1, -1)">
                <text x="0" y="0" id="Fig:densplot_01.ticklabels.left.panel.1.1.1.2.text" transform="rotate(-90)" text-anchor="middle" stroke="rgb(0,0,0)" opacity="1" fill="rgb(0,0,0)" stroke-opacity="1" fill-opacity="1" font-size="9.6" font-weight="normal" font-style="normal">
                  <tspan id="Fig:densplot_01.ticklabels.left.panel.1.1.1.2.tspan.1" dy="0" x="0">0.05</tspan>
                </text>
              </g>
            </g>
            <g id="Fig:densplot_01.ticklabels.left.panel.1.1.1.3" transform="translate(33.47, 138.06)" stroke-width="0.1">
              <g id="Fig:densplot_01.ticklabels.left.panel.1.1.1.3.scale" transform="scale(1, -1)">
                <text x="0" y="0" id="Fig:densplot_01.ticklabels.left.panel.1.1.1.3.text" transform="rotate(-90)" text-anchor="middle" stroke="rgb(0,0,0)" opacity="1" fill="rgb(0,0,0)" stroke-opacity="1" fill-opacity="1" font-size="9.6" font-weight="normal" font-style="normal">
                  <tspan id="Fig:densplot_01.ticklabels.left.panel.1.1.1.3.tspan.1" dy="0" x="0">0.10</tspan>
                </text>
              </g>
            </g>
            <g id="Fig:densplot_01.ticklabels.left.panel.1.1.1.4" transform="translate(33.47, 180.11)" stroke-width="0.1">
              <g id="Fig:densplot_01.ticklabels.left.panel.1.1.1.4.scale" transform="scale(1, -1)">
                <text x="0" y="0" id="Fig:densplot_01.ticklabels.left.panel.1.1.1.4.text" transform="rotate(-90)" text-anchor="middle" stroke="rgb(0,0,0)" opacity="1" fill="rgb(0,0,0)" stroke-opacity="1" fill-opacity="1" font-size="9.6" font-weight="normal" font-style="normal">
                  <tspan id="Fig:densplot_01.ticklabels.left.panel.1.1.1.4.tspan.1" dy="0" x="0">0.15</tspan>
                </text>
              </g>
            </g>
            <g id="Fig:densplot_01.ticklabels.left.panel.1.1.1.5" transform="translate(33.47, 222.17)" stroke-width="0.1">
              <g id="Fig:densplot_01.ticklabels.left.panel.1.1.1.5.scale" transform="scale(1, -1)">
                <text x="0" y="0" id="Fig:densplot_01.ticklabels.left.panel.1.1.1.5.text" transform="rotate(-90)" text-anchor="middle" stroke="rgb(0,0,0)" opacity="1" fill="rgb(0,0,0)" stroke-opacity="1" fill-opacity="1" font-size="9.6" font-weight="normal" font-style="normal">
                  <tspan id="Fig:densplot_01.ticklabels.left.panel.1.1.1.5.tspan.1" dy="0" x="0">0.20</tspan>
                </text>
              </g>
            </g>
          </g>
        </g>
        <g id="Fig:densplot_01.panel.1.1.off.vp.1">
          <g id="Fig:densplot_01.ticks.bottom.panel.1.1.1">
            <polyline id="Fig:densplot_01.ticks.bottom.panel.1.1.1.1" points="74.49,42.19 74.49,36.52" stroke="rgb(0,0,0)" opacity="1" stroke-dasharray="none" stroke-width="0.75" stroke-opacity="1" fill="none"/>
            <polyline id="Fig:densplot_01.ticks.bottom.panel.1.1.1.2" points="114.17,42.19 114.17,36.52" stroke="rgb(0,0,0)" opacity="1" stroke-dasharray="none" stroke-width="0.75" stroke-opacity="1" fill="none"/>
            <polyline id="Fig:densplot_01.ticks.bottom.panel.1.1.1.3" points="153.85,42.19 153.85,36.52" stroke="rgb(0,0,0)" opacity="1" stroke-dasharray="none" stroke-width="0.75" stroke-opacity="1" fill="none"/>
            <polyline id="Fig:densplot_01.ticks.bottom.panel.1.1.1.4" points="193.53,42.19 193.53,36.52" stroke="rgb(0,0,0)" opacity="1" stroke-dasharray="none" stroke-width="0.75" stroke-opacity="1" fill="none"/>
            <polyline id="Fig:densplot_01.ticks.bottom.panel.1.1.1.5" points="233.21,42.19 233.21,36.52" stroke="rgb(0,0,0)" opacity="1" stroke-dasharray="none" stroke-width="0.75" stroke-opacity="1" fill="none"/>
            <polyline id="Fig:densplot_01.ticks.bottom.panel.1.1.1.6" points="272.88,42.19 272.88,36.52" stroke="rgb(0,0,0)" opacity="1" stroke-dasharray="none" stroke-width="0.75" stroke-opacity="1" fill="none"/>
          </g>
          <g id="Fig:densplot_01.ticklabels.bottom.panel.1.1.1">
            <g id="Fig:densplot_01.ticklabels.bottom.panel.1.1.1.1" transform="translate(74.49, 30.85)" stroke-width="0.1">
              <g id="Fig:densplot_01.ticklabels.bottom.panel.1.1.1.1.scale" transform="scale(1, -1)">
                <text x="0" y="0" id="Fig:densplot_01.ticklabels.bottom.panel.1.1.1.1.text" text-anchor="middle" stroke="rgb(0,0,0)" opacity="1" fill="rgb(0,0,0)" stroke-opacity="1" fill-opacity="1" font-size="9.6" font-weight="normal" font-style="normal">
                  <tspan id="Fig:densplot_01.ticklabels.bottom.panel.1.1.1.1.tspan.1" dy="7.18" x="0">2</tspan>
                </text>
              </g>
            </g>
            <g id="Fig:densplot_01.ticklabels.bottom.panel.1.1.1.2" transform="translate(114.17, 30.85)" stroke-width="0.1">
              <g id="Fig:densplot_01.ticklabels.bottom.panel.1.1.1.2.scale" transform="scale(1, -1)">
                <text x="0" y="0" id="Fig:densplot_01.ticklabels.bottom.panel.1.1.1.2.text" text-anchor="middle" stroke="rgb(0,0,0)" opacity="1" fill="rgb(0,0,0)" stroke-opacity="1" fill-opacity="1" font-size="9.6" font-weight="normal" font-style="normal">
                  <tspan id="Fig:densplot_01.ticklabels.bottom.panel.1.1.1.2.tspan.1" dy="7.18" x="0">4</tspan>
                </text>
              </g>
            </g>
            <g id="Fig:densplot_01.ticklabels.bottom.panel.1.1.1.3" transform="translate(153.85, 30.85)" stroke-width="0.1">
              <g id="Fig:densplot_01.ticklabels.bottom.panel.1.1.1.3.scale" transform="scale(1, -1)">
                <text x="0" y="0" id="Fig:densplot_01.ticklabels.bottom.panel.1.1.1.3.text" text-anchor="middle" stroke="rgb(0,0,0)" opacity="1" fill="rgb(0,0,0)" stroke-opacity="1" fill-opacity="1" font-size="9.6" font-weight="normal" font-style="normal">
                  <tspan id="Fig:densplot_01.ticklabels.bottom.panel.1.1.1.3.tspan.1" dy="7.18" x="0">6</tspan>
                </text>
              </g>
            </g>
            <g id="Fig:densplot_01.ticklabels.bottom.panel.1.1.1.4" transform="translate(193.53, 30.85)" stroke-width="0.1">
              <g id="Fig:densplot_01.ticklabels.bottom.panel.1.1.1.4.scale" transform="scale(1, -1)">
                <text x="0" y="0" id="Fig:densplot_01.ticklabels.bottom.panel.1.1.1.4.text" text-anchor="middle" stroke="rgb(0,0,0)" opacity="1" fill="rgb(0,0,0)" stroke-opacity="1" fill-opacity="1" font-size="9.6" font-weight="normal" font-style="normal">
                  <tspan id="Fig:densplot_01.ticklabels.bottom.panel.1.1.1.4.tspan.1" dy="7.18" x="0">8</tspan>
                </text>
              </g>
            </g>
            <g id="Fig:densplot_01.ticklabels.bottom.panel.1.1.1.5" transform="translate(233.21, 30.85)" stroke-width="0.1">
              <g id="Fig:densplot_01.ticklabels.bottom.panel.1.1.1.5.scale" transform="scale(1, -1)">
                <text x="0" y="0" id="Fig:densplot_01.ticklabels.bottom.panel.1.1.1.5.text" text-anchor="middle" stroke="rgb(0,0,0)" opacity="1" fill="rgb(0,0,0)" stroke-opacity="1" fill-opacity="1" font-size="9.6" font-weight="normal" font-style="normal">
                  <tspan id="Fig:densplot_01.ticklabels.bottom.panel.1.1.1.5.tspan.1" dy="7.18" x="0">10</tspan>
                </text>
              </g>
            </g>
          </g>
        </g>
        <defs>
          <clipPath id="Fig:densplot_01.panel.1.1.vp.2.clipPath">
            <rect x="44.8" y="42.19" width="231.2" height="191.81" fill="none" stroke="none"/>
          </clipPath>
        </defs>
        <g id="Fig:densplot_01.panel.1.1.vp.2" clip-path="url(#Fig:densplot_01.panel.1.1.vp.2.clipPath)">
          <g id="Fig:densplot_01.xyplot.lines.group.1.panel.1.1.1">
            <polyline id="Fig:densplot_01.xyplot.lines.group.1.panel.1.1.1.1" points="59.26,53.99 59.65,54.01 60.05,54.03 60.44,54.06 60.84,54.1 61.24,54.15 61.63,54.22 62.03,54.31 62.42,54.43 62.82,54.59 63.21,54.78 63.61,55.01 64.01,55.3 64.4,55.65 64.8,56.06 65.19,56.57 65.59,57.16 65.99,57.84 66.38,58.63 66.78,59.51 67.17,60.5 67.57,61.6 67.96,62.81 68.36,64.13 68.76,65.55 69.15,67.06 69.55,68.65 69.94,70.31 70.34,72.02 70.74,73.78 71.13,75.57 71.53,77.37 71.92,79.17 72.32,80.96 72.71,82.72 73.11,84.45 73.51,86.14 73.9,87.78 74.3,89.38 74.69,90.92 75.09,92.4 75.49,93.83 75.88,95.21 76.28,96.54 76.67,97.83 77.07,99.07 77.46,100.28 77.86,101.45 78.26,102.6 78.65,103.71 79.05,104.81 79.44,105.88 79.84,106.94 80.24,107.98 80.63,109.01 81.03,110.03 81.42,111.03 81.82,112.03 82.21,113.01 82.61,113.99 83.01,114.94 83.4,115.89 83.8,116.81 84.19,117.71 84.59,118.59 84.99,119.43 85.38,120.24 85.78,121.03 86.17,121.77 86.57,122.48 86.96,123.16 87.36,123.8 87.76,124.41 88.15,124.99 88.55,125.55 88.94,126.1 89.34,126.63 89.74,127.16 90.13,127.69 90.53,128.23 90.92,128.79 91.32,129.37 91.71,129.98 92.11,130.61 92.51,131.28 92.9,131.98 93.3,132.71 93.69,133.48 94.09,134.29 94.49,135.13 94.88,135.99 95.28,136.88 95.67,137.8 96.07,138.73 96.46,139.68 96.86,140.65 97.26,141.63 97.65,142.61 98.05,143.6 98.44,144.6 98.84,145.59 99.24,146.59 99.63,147.58 100.03,148.56 100.42,149.54 100.82,150.51 101.21,151.48 101.61,152.43 102.01,153.38 102.4,154.31 102.8,155.24 103.19,156.17 103.59,157.08 103.99,158 104.38,158.92 104.78,159.84 105.17,160.77 105.57,161.71 105.96,162.66 106.36,163.62 106.76,164.59 107.15,165.58 107.55,166.59 107.94,167.61 108.34,168.65 108.74,169.7 109.13,170.75 109.53,171.82 109.92,172.89 110.32,173.95 110.71,175.01 111.11,176.06 111.51,177.1 111.9,178.12 112.3,179.12 112.69,180.1 113.09,181.04 113.49,181.96 113.88,182.85 114.28,183.71 114.67,184.54 115.07,185.35 115.46,186.14 115.86,186.9 116.26,187.65 116.65,188.39 117.05,189.12 117.44,189.84 117.84,190.56 118.24,191.28 118.63,192 119.03,192.72 119.42,193.44 119.82,194.16 120.21,194.88 120.61,195.6 121.01,196.3 121.4,197 121.8,197.68 122.19,198.35 122.59,198.99 122.99,199.61 123.38,200.2 123.78,200.77 124.17,201.3 124.57,201.81 124.96,202.29 125.36,202.75 125.76,203.18 126.15,203.6 126.55,203.99 126.94,204.38 127.34,204.75 127.74,205.12 128.13,205.48 128.53,205.84 128.92,206.2 129.32,206.57 129.71,206.93 130.11,207.31 130.51,207.68 130.9,208.07 131.3,208.46 131.69,208.86 132.09,209.28 132.49,209.71 132.88,210.15 133.28,210.61 133.67,211.1 134.07,211.6 134.46,212.13 134.86,212.68 135.26,213.26 135.65,213.86 136.05,214.48 136.44,215.12 136.84,215.77 137.24,216.43 137.63,217.09 138.03,217.74 138.42,218.37 138.82,218.98 139.21,219.56 139.61,220.09 140.01,220.58 140.4,221.01 140.8,221.39 141.19,221.7 141.59,221.94 141.99,222.1 142.38,222.19 142.78,222.22 143.17,222.18 143.57,222.08 143.96,221.92 144.36,221.71 144.76,221.44 145.15,221.12 145.55,220.77 145.94,220.39 146.34,219.98 146.74,219.56 147.13,219.12 147.53,218.67 147.92,218.22 148.32,217.77 148.71,217.33 149.11,216.9 149.51,216.49 149.9,216.09 150.3,215.71 150.69,215.35 151.09,215.02 151.49,214.7 151.88,214.41 152.28,214.14 152.67,213.89 153.07,213.66 153.46,213.45 153.86,213.26 154.26,213.08 154.65,212.92 155.05,212.78 155.44,212.65 155.84,212.52 156.24,212.41 156.63,212.31 157.03,212.2 157.42,212.1 157.82,211.99 158.21,211.86 158.61,211.72 159.01,211.56 159.4,211.36 159.8,211.14 160.19,210.88 160.59,210.57 160.98,210.22 161.38,209.83 161.78,209.39 162.17,208.91 162.57,208.39 162.96,207.84 163.36,207.26 163.76,206.64 164.15,206.01 164.55,205.35 164.94,204.69 165.34,204.01 165.73,203.33 166.13,202.65 166.53,201.96 166.92,201.28 167.32,200.6 167.71,199.94 168.11,199.28 168.51,198.63 168.9,197.99 169.3,197.36 169.69,196.75 170.09,196.16 170.48,195.59 170.88,195.03 171.28,194.49 171.67,193.96 172.07,193.45 172.46,192.96 172.86,192.47 173.26,191.99 173.65,191.51 174.05,191.03 174.44,190.54 174.84,190.04 175.23,189.52 175.63,188.97 176.03,188.39 176.42,187.78 176.82,187.12 177.21,186.42 177.61,185.67 178.01,184.87 178.4,184.02 178.8,183.12 179.19,182.17 179.59,181.17 179.98,180.12 180.38,179.03 180.78,177.9 181.17,176.73 181.57,175.55 181.96,174.34 182.36,173.13 182.76,171.91 183.15,170.68 183.55,169.47 183.94,168.26 184.34,167.07 184.73,165.88 185.13,164.72 185.53,163.57 185.92,162.42 186.32,161.29 186.71,160.16 187.11,159.03 187.51,157.89 187.9,156.75 188.3,155.58 188.69,154.4 189.09,153.2 189.48,151.97 189.88,150.71 190.28,149.43 190.67,148.13 191.07,146.8 191.46,145.46 191.86,144.11 192.26,142.74 192.65,141.37 193.05,140 193.44,138.64 193.84,137.3 194.23,135.97 194.63,134.65 195.03,133.37 195.42,132.11 195.82,130.88 196.21,129.67 196.61,128.5 197.01,127.35 197.4,126.22 197.8,125.11 198.19,124.02 198.59,122.94 198.98,121.87 199.38,120.81 199.78,119.74 200.17,118.67 200.57,117.59 200.96,116.5 201.36,115.4 201.76,114.29 202.15,113.16 202.55,112.03 202.94,110.88 203.34,109.72 203.73,108.57 204.13,107.42 204.53,106.27 204.92,105.14 205.32,104.03 205.71,102.94 206.11,101.89 206.51,100.87 206.9,99.89 207.3,98.96 207.69,98.07 208.09,97.22 208.48,96.43 208.88,95.68 209.28,94.98 209.67,94.32 210.07,93.69 210.46,93.09 210.86,92.52 211.26,91.98 211.65,91.45 212.05,90.94 212.44,90.44 212.84,89.94 213.23,89.44 213.63,88.94 214.03,88.45 214.42,87.94 214.82,87.43 215.21,86.92 215.61,86.4 216.01,85.88 216.4,85.35 216.8,84.82 217.19,84.28 217.59,83.75 217.98,83.22 218.38,82.69 218.78,82.17 219.17,81.65 219.57,81.14 219.96,80.63 220.36,80.13 220.76,79.63 221.15,79.14 221.55,78.67 221.94,78.2 222.34,77.74 222.73,77.29 223.13,76.86 223.53,76.44 223.92,76.03 224.32,75.65 224.71,75.29 225.11,74.95 225.51,74.62 225.9,74.33 226.3,74.05 226.69,73.79 227.09,73.56 227.48,73.34 227.88,73.14 228.28,72.95 228.67,72.77 229.07,72.59 229.46,72.42 229.86,72.24 230.26,72.07 230.65,71.88 231.05,71.69 231.44,71.49 231.84,71.28 232.23,71.06 232.63,70.84 233.03,70.61 233.42,70.37 233.82,70.13 234.21,69.88 234.61,69.64 235.01,69.41 235.4,69.18 235.8,68.96 236.19,68.75 236.59,68.55 236.98,68.36 237.38,68.19 237.78,68.04 238.17,67.89 238.57,67.76 238.96,67.64 239.36,67.52 239.76,67.42 240.15,67.31 240.55,67.21 240.94,67.11 241.34,67 241.73,66.88 242.13,66.75 242.53,66.6 242.92,66.44 243.32,66.26 243.71,66.06 244.11,65.84 244.51,65.59 244.9,65.32 245.3,65.02 245.69,64.7 246.09,64.35 246.48,63.97 246.88,63.57 247.28,63.15 247.67,62.7 248.07,62.24 248.46,61.76 248.86,61.27 249.26,60.77 249.65,60.27 250.05,59.77 250.44,59.27 250.84,58.78 251.23,58.31 251.63,57.85 252.03,57.41 252.42,57 252.82,56.61 253.21,56.26 253.61,55.94 254.01,55.64 254.4,55.38 254.8,55.15 255.19,54.94 255.59,54.76 255.98,54.61 256.38,54.48 256.78,54.38 257.17,54.29 257.57,54.22 257.96,54.16 258.36,54.11 258.76,54.07 259.15,54.04 259.55,54.02 259.94,54 260.34,53.99 260.73,53.98 261.13,53.97 261.53,53.97" stroke-dasharray="none" stroke="rgb(31,120,180)" stroke-width="0.75" opacity="1" stroke-opacity="1" fill="none"/>
          </g>
          <g id="Fig:densplot_01.xyplot.lines.group.2.panel.1.1.1">
            <polyline id="Fig:densplot_01.xyplot.lines.group.2.panel.1.1.1.1" points="59.21,54 59.61,54.01 60,54.04 60.4,54.07 60.79,54.12 61.19,54.18 61.59,54.26 61.98,54.36 62.38,54.49 62.77,54.66 63.17,54.87 63.56,55.13 63.96,55.44 64.36,55.82 64.75,56.28 65.15,56.81 65.54,57.45 65.94,58.18 66.34,59.02 66.73,59.96 67.13,61.01 67.52,62.18 67.92,63.45 68.31,64.82 68.71,66.31 69.11,67.89 69.5,69.54 69.9,71.26 70.29,73.03 70.69,74.84 71.09,76.68 71.48,78.52 71.88,80.35 72.27,82.17 72.67,83.95 73.07,85.69 73.46,87.38 73.86,89.02 74.25,90.6 74.65,92.12 75.04,93.58 75.44,94.97 75.84,96.32 76.23,97.61 76.63,98.86 77.02,100.07 77.42,101.25 77.82,102.4 78.21,103.51 78.61,104.61 79,105.69 79.4,106.75 79.79,107.8 80.19,108.83 80.59,109.85 80.98,110.86 81.38,111.85 81.77,112.82 82.17,113.77 82.57,114.71 82.96,115.63 83.36,116.52 83.75,117.39 84.15,118.24 84.54,119.07 84.94,119.87 85.34,120.64 85.73,121.4 86.13,122.13 86.52,122.85 86.92,123.54 87.32,124.22 87.71,124.89 88.11,125.54 88.5,126.19 88.9,126.82 89.3,127.46 89.69,128.09 90.09,128.73 90.48,129.36 90.88,130 91.27,130.65 91.67,131.3 92.07,131.95 92.46,132.61 92.86,133.28 93.25,133.96 93.65,134.64 94.05,135.33 94.44,136.04 94.84,136.75 95.23,137.48 95.63,138.23 96.02,138.99 96.42,139.77 96.82,140.58 97.21,141.4 97.61,142.26 98,143.13 98.4,144.03 98.8,144.95 99.19,145.89 99.59,146.85 99.98,147.82 100.38,148.81 100.78,149.8 101.17,150.8 101.57,151.81 101.96,152.82 102.36,153.83 102.75,154.84 103.15,155.86 103.55,156.88 103.94,157.89 104.34,158.91 104.73,159.93 105.13,160.96 105.53,161.98 105.92,163 106.32,164.02 106.71,165.03 107.11,166.03 107.5,167.02 107.9,167.99 108.3,168.95 108.69,169.89 109.09,170.81 109.48,171.71 109.88,172.58 110.28,173.42 110.67,174.25 111.07,175.05 111.46,175.84 111.86,176.6 112.26,177.35 112.65,178.09 113.05,178.81 113.44,179.52 113.84,180.22 114.23,180.91 114.63,181.6 115.03,182.28 115.42,182.96 115.82,183.65 116.21,184.33 116.61,185.03 117.01,185.74 117.4,186.45 117.8,187.19 118.19,187.95 118.59,188.73 118.98,189.53 119.38,190.36 119.78,191.23 120.17,192.11 120.57,193.02 120.96,193.94 121.36,194.89 121.76,195.84 122.15,196.79 122.55,197.74 122.94,198.67 123.34,199.58 123.73,200.45 124.13,201.29 124.53,202.09 124.92,202.83 125.32,203.52 125.71,204.14 126.11,204.7 126.51,205.19 126.9,205.62 127.3,205.99 127.69,206.3 128.09,206.56 128.49,206.77 128.88,206.94 129.28,207.07 129.67,207.18 130.07,207.28 130.46,207.37 130.86,207.47 131.26,207.57 131.65,207.7 132.05,207.85 132.44,208.04 132.84,208.26 133.24,208.53 133.63,208.84 134.03,209.2 134.42,209.61 134.82,210.07 135.21,210.58 135.61,211.13 136.01,211.73 136.4,212.35 136.8,213.01 137.19,213.68 137.59,214.37 137.99,215.06 138.38,215.75 138.78,216.42 139.17,217.06 139.57,217.68 139.97,218.25 140.36,218.78 140.76,219.25 141.15,219.66 141.55,220.01 141.94,220.28 142.34,220.48 142.74,220.62 143.13,220.69 143.53,220.7 143.92,220.65 144.32,220.54 144.72,220.38 145.11,220.18 145.51,219.94 145.9,219.68 146.3,219.39 146.69,219.08 147.09,218.76 147.49,218.44 147.88,218.1 148.28,217.77 148.67,217.44 149.07,217.11 149.47,216.78 149.86,216.46 150.26,216.15 150.65,215.84 151.05,215.55 151.44,215.26 151.84,214.99 152.24,214.74 152.63,214.5 153.03,214.28 153.42,214.08 153.82,213.89 154.22,213.74 154.61,213.6 155.01,213.47 155.4,213.37 155.8,213.27 156.2,213.18 156.59,213.09 156.99,212.99 157.38,212.88 157.78,212.75 158.17,212.59 158.57,212.4 158.97,212.16 159.36,211.88 159.76,211.55 160.15,211.17 160.55,210.73 160.95,210.24 161.34,209.69 161.74,209.09 162.13,208.45 162.53,207.78 162.92,207.07 163.32,206.33 163.72,205.57 164.11,204.8 164.51,204.02 164.9,203.25 165.3,202.49 165.7,201.74 166.09,201.01 166.49,200.3 166.88,199.63 167.28,198.99 167.68,198.39 168.07,197.82 168.47,197.28 168.86,196.79 169.26,196.32 169.65,195.9 170.05,195.5 170.45,195.14 170.84,194.81 171.24,194.49 171.63,194.18 172.03,193.89 172.43,193.6 172.82,193.31 173.22,193.01 173.61,192.69 174.01,192.35 174.4,191.99 174.8,191.6 175.2,191.18 175.59,190.72 175.99,190.22 176.38,189.68 176.78,189.1 177.18,188.47 177.57,187.8 177.97,187.08 178.36,186.31 178.76,185.5 179.16,184.63 179.55,183.71 179.95,182.73 180.34,181.7 180.74,180.62 181.13,179.49 181.53,178.32 181.93,177.09 182.32,175.83 182.72,174.52 183.11,173.18 183.51,171.82 183.91,170.44 184.3,169.04 184.7,167.64 185.09,166.24 185.49,164.85 185.88,163.46 186.28,162.09 186.68,160.74 187.07,159.41 187.47,158.09 187.86,156.79 188.26,155.5 188.66,154.22 189.05,152.96 189.45,151.7 189.84,150.44 190.24,149.18 190.63,147.92 191.03,146.66 191.43,145.38 191.82,144.1 192.22,142.82 192.61,141.53 193.01,140.24 193.41,138.95 193.8,137.66 194.2,136.39 194.59,135.12 194.99,133.86 195.39,132.62 195.78,131.4 196.18,130.19 196.57,129 196.97,127.82 197.36,126.66 197.76,125.51 198.16,124.37 198.55,123.24 198.95,122.11 199.34,120.98 199.74,119.85 200.14,118.71 200.53,117.57 200.93,116.42 201.32,115.27 201.72,114.11 202.11,112.94 202.51,111.76 202.91,110.59 203.3,109.41 203.7,108.23 204.09,107.07 204.49,105.91 204.89,104.77 205.28,103.65 205.68,102.56 206.07,101.49 206.47,100.46 206.87,99.47 207.26,98.52 207.66,97.61 208.05,96.75 208.45,95.94 208.84,95.18 209.24,94.46 209.64,93.79 210.03,93.16 210.43,92.57 210.82,92.02 211.22,91.5 211.62,91 212.01,90.53 212.41,90.08 212.8,89.64 213.2,89.2 213.59,88.77 213.99,88.33 214.39,87.89 214.78,87.44 215.18,86.98 215.57,86.51 215.97,86.03 216.37,85.53 216.76,85.02 217.16,84.51 217.55,83.98 217.95,83.45 218.35,82.91 218.74,82.37 219.14,81.83 219.53,81.3 219.93,80.77 220.32,80.25 220.72,79.75 221.12,79.25 221.51,78.77 221.91,78.31 222.3,77.86 222.7,77.43 223.1,77.02 223.49,76.64 223.89,76.27 224.28,75.93 224.68,75.61 225.07,75.31 225.47,75.03 225.87,74.77 226.26,74.52 226.66,74.29 227.05,74.07 227.45,73.86 227.85,73.66 228.24,73.45 228.64,73.25 229.03,73.05 229.43,72.84 229.82,72.63 230.22,72.42 230.62,72.19 231.01,71.96 231.41,71.72 231.8,71.48 232.2,71.23 232.6,70.99 232.99,70.74 233.39,70.49 233.78,70.25 234.18,70.01 234.58,69.78 234.97,69.55 235.37,69.34 235.76,69.13 236.16,68.93 236.55,68.74 236.95,68.55 237.35,68.38 237.74,68.21 238.14,68.04 238.53,67.88 238.93,67.73 239.33,67.58 239.72,67.44 240.12,67.29 240.51,67.15 240.91,67.01 241.3,66.87 241.7,66.74 242.1,66.6 242.49,66.45 242.89,66.31 243.28,66.15 243.68,65.99 244.08,65.82 244.47,65.63 244.87,65.42 245.26,65.2 245.66,64.95 246.06,64.68 246.45,64.37 246.85,64.04 247.24,63.68 247.64,63.3 248.03,62.88 248.43,62.44 248.83,61.97 249.22,61.49 249.62,60.98 250.01,60.47 250.41,59.95 250.81,59.44 251.2,58.92 251.6,58.43 251.99,57.94 252.39,57.48 252.78,57.05 253.18,56.64 253.58,56.27 253.97,55.93 254.37,55.63 254.76,55.35 255.16,55.11 255.56,54.9 255.95,54.73 256.35,54.58 256.74,54.45 257.14,54.34 257.53,54.26 257.93,54.19 258.33,54.13 258.72,54.09 259.12,54.05 259.51,54.03 259.91,54.01 260.31,53.99 260.7,53.98 261.1,53.97 261.49,53.97" stroke-dasharray="none" stroke="rgb(31,120,180)" stroke-width="0.75" opacity="1" stroke-opacity="1" fill="none"/>
          </g>
          <g id="Fig:densplot_01.xyplot.lines.group.3.panel.1.1.1">
            <polyline id="Fig:densplot_01.xyplot.lines.group.3.panel.1.1.1.1" points="59.16,54 59.56,54.02 59.96,54.04 60.35,54.08 60.75,54.12 61.14,54.18 61.54,54.27 61.94,54.37 62.33,54.5 62.73,54.67 63.13,54.89 63.52,55.16 63.92,55.48 64.32,55.87 64.71,56.33 65.11,56.88 65.5,57.52 65.9,58.28 66.3,59.13 66.69,60.1 67.09,61.18 67.49,62.36 67.88,63.66 68.28,65.06 68.67,66.57 69.07,68.18 69.47,69.86 69.86,71.61 70.26,73.4 70.66,75.24 71.05,77.09 71.45,78.96 71.84,80.82 72.24,82.65 72.64,84.46 73.03,86.23 73.43,87.95 73.83,89.62 74.22,91.23 74.62,92.79 75.01,94.29 75.41,95.72 75.81,97.1 76.2,98.43 76.6,99.72 77,100.96 77.39,102.15 77.79,103.32 78.19,104.44 78.58,105.53 78.98,106.6 79.37,107.65 79.77,108.67 80.17,109.67 80.56,110.66 80.96,111.63 81.36,112.59 81.75,113.53 82.15,114.46 82.54,115.37 82.94,116.27 83.34,117.16 83.73,118.03 84.13,118.89 84.53,119.73 84.92,120.55 85.32,121.37 85.71,122.16 86.11,122.95 86.51,123.72 86.9,124.49 87.3,125.24 87.7,125.99 88.09,126.73 88.49,127.46 88.89,128.19 89.28,128.92 89.68,129.65 90.07,130.38 90.47,131.1 90.87,131.83 91.26,132.55 91.66,133.27 92.06,134 92.45,134.72 92.85,135.44 93.24,136.17 93.64,136.9 94.04,137.64 94.43,138.39 94.83,139.14 95.23,139.91 95.62,140.7 96.02,141.5 96.41,142.32 96.81,143.16 97.21,144.02 97.6,144.9 98,145.8 98.4,146.73 98.79,147.67 99.19,148.62 99.59,149.6 99.98,150.58 100.38,151.58 100.77,152.58 101.17,153.59 101.57,154.6 101.96,155.61 102.36,156.62 102.76,157.62 103.15,158.62 103.55,159.61 103.94,160.59 104.34,161.56 104.74,162.51 105.13,163.45 105.53,164.38 105.93,165.3 106.32,166.21 106.72,167.11 107.11,167.99 107.51,168.87 107.91,169.75 108.3,170.62 108.7,171.49 109.1,172.36 109.49,173.23 109.89,174.11 110.28,174.98 110.68,175.87 111.08,176.75 111.47,177.65 111.87,178.54 112.27,179.45 112.66,180.35 113.06,181.26 113.46,182.18 113.85,183.09 114.25,184 114.64,184.91 115.04,185.81 115.44,186.71 115.83,187.61 116.23,188.49 116.63,189.37 117.02,190.23 117.42,191.09 117.81,191.94 118.21,192.77 118.61,193.6 119,194.42 119.4,195.24 119.8,196.04 120.19,196.83 120.59,197.61 120.98,198.38 121.38,199.14 121.78,199.88 122.17,200.61 122.57,201.31 122.97,201.98 123.36,202.62 123.76,203.24 124.16,203.82 124.55,204.36 124.95,204.87 125.34,205.34 125.74,205.78 126.14,206.18 126.53,206.54 126.93,206.88 127.33,207.2 127.72,207.5 128.12,207.78 128.51,208.06 128.91,208.33 129.31,208.6 129.7,208.88 130.1,209.16 130.5,209.46 130.89,209.78 131.29,210.1 131.68,210.45 132.08,210.81 132.48,211.19 132.87,211.58 133.27,211.98 133.67,212.39 134.06,212.8 134.46,213.22 134.85,213.63 135.25,214.04 135.65,214.44 136.04,214.83 136.44,215.21 136.84,215.58 137.23,215.93 137.63,216.26 138.03,216.57 138.42,216.87 138.82,217.14 139.21,217.39 139.61,217.61 140.01,217.81 140.4,217.98 140.8,218.13 141.2,218.25 141.59,218.33 141.99,218.38 142.38,218.4 142.78,218.39 143.18,218.35 143.57,218.29 143.97,218.2 144.37,218.08 144.76,217.94 145.16,217.79 145.55,217.62 145.95,217.44 146.35,217.25 146.74,217.05 147.14,216.84 147.54,216.63 147.93,216.41 148.33,216.18 148.73,215.94 149.12,215.7 149.52,215.45 149.91,215.19 150.31,214.92 150.71,214.65 151.1,214.37 151.5,214.09 151.9,213.81 152.29,213.54 152.69,213.28 153.08,213.02 153.48,212.78 153.88,212.56 154.27,212.35 154.67,212.15 155.07,211.97 155.46,211.79 155.86,211.62 156.25,211.44 156.65,211.26 157.05,211.06 157.44,210.84 157.84,210.59 158.24,210.3 158.63,209.97 159.03,209.6 159.42,209.19 159.82,208.72 160.22,208.21 160.61,207.65 161.01,207.03 161.41,206.38 161.8,205.69 162.2,204.96 162.6,204.21 162.99,203.45 163.39,202.66 163.78,201.87 164.18,201.08 164.58,200.31 164.97,199.54 165.37,198.8 165.77,198.08 166.16,197.39 166.56,196.74 166.95,196.12 167.35,195.54 167.75,195.01 168.14,194.5 168.54,194.04 168.94,193.6 169.33,193.2 169.73,192.82 170.12,192.46 170.52,192.12 170.92,191.79 171.31,191.46 171.71,191.14 172.11,190.8 172.5,190.45 172.9,190.08 173.3,189.69 173.69,189.27 174.09,188.81 174.48,188.32 174.88,187.79 175.28,187.21 175.67,186.59 176.07,185.93 176.47,185.21 176.86,184.44 177.26,183.62 177.65,182.76 178.05,181.85 178.45,180.9 178.84,179.91 179.24,178.88 179.64,177.81 180.03,176.72 180.43,175.6 180.82,174.46 181.22,173.31 181.62,172.15 182.01,170.98 182.41,169.81 182.81,168.63 183.2,167.46 183.6,166.3 183.99,165.13 184.39,163.98 184.79,162.83 185.18,161.68 185.58,160.53 185.98,159.39 186.37,158.25 186.77,157.1 187.17,155.95 187.56,154.78 187.96,153.61 188.35,152.42 188.75,151.22 189.15,150 189.54,148.76 189.94,147.51 190.34,146.25 190.73,144.98 191.13,143.7 191.52,142.42 191.92,141.15 192.32,139.88 192.71,138.62 193.11,137.38 193.51,136.16 193.9,134.96 194.3,133.79 194.69,132.65 195.09,131.53 195.49,130.45 195.88,129.39 196.28,128.35 196.68,127.33 197.07,126.32 197.47,125.33 197.87,124.34 198.26,123.35 198.66,122.36 199.05,121.36 199.45,120.35 199.85,119.34 200.24,118.31 200.64,117.26 201.04,116.21 201.43,115.14 201.83,114.06 202.22,112.97 202.62,111.87 203.02,110.77 203.41,109.67 203.81,108.57 204.21,107.47 204.6,106.38 205,105.3 205.39,104.24 205.79,103.19 206.19,102.17 206.58,101.16 206.98,100.19 207.38,99.24 207.77,98.33 208.17,97.45 208.57,96.62 208.96,95.82 209.36,95.06 209.75,94.34 210.15,93.66 210.55,93.02 210.94,92.41 211.34,91.84 211.74,91.29 212.13,90.78 212.53,90.28 212.92,89.81 213.32,89.35 213.72,88.9 214.11,88.46 214.51,88.02 214.91,87.59 215.3,87.15 215.7,86.71 216.09,86.27 216.49,85.82 216.89,85.37 217.28,84.92 217.68,84.45 218.08,83.98 218.47,83.51 218.87,83.03 219.26,82.55 219.66,82.06 220.06,81.56 220.45,81.07 220.85,80.57 221.25,80.08 221.64,79.58 222.04,79.09 222.44,78.6 222.83,78.13 223.23,77.66 223.62,77.2 224.02,76.77 224.42,76.35 224.81,75.96 225.21,75.59 225.61,75.24 226,74.92 226.4,74.63 226.79,74.36 227.19,74.11 227.59,73.89 227.98,73.69 228.38,73.51 228.78,73.34 229.17,73.17 229.57,73.02 229.96,72.86 230.36,72.71 230.76,72.55 231.15,72.38 231.55,72.2 231.95,72.01 232.34,71.81 232.74,71.6 233.14,71.37 233.53,71.14 233.93,70.89 234.32,70.64 234.72,70.38 235.12,70.12 235.51,69.86 235.91,69.6 236.31,69.34 236.7,69.09 237.1,68.85 237.49,68.62 237.89,68.4 238.29,68.19 238.68,67.99 239.08,67.8 239.48,67.63 239.87,67.46 240.27,67.31 240.66,67.16 241.06,67.03 241.46,66.89 241.85,66.76 242.25,66.63 242.65,66.49 243.04,66.35 243.44,66.2 243.83,66.04 244.23,65.86 244.63,65.67 245.02,65.45 245.42,65.21 245.82,64.94 246.21,64.64 246.61,64.3 247.01,63.94 247.4,63.55 247.8,63.13 248.19,62.68 248.59,62.21 248.99,61.71 249.38,61.2 249.78,60.68 250.18,60.16 250.57,59.63 250.97,59.12 251.36,58.61 251.76,58.12 252.16,57.65 252.55,57.21 252.95,56.8 253.35,56.41 253.74,56.07 254.14,55.75 254.53,55.47 254.93,55.21 255.33,54.99 255.72,54.81 256.12,54.65 256.52,54.51 256.91,54.4 257.31,54.3 257.71,54.23 258.1,54.16 258.5,54.11 258.89,54.07 259.29,54.04 259.69,54.02 260.08,54 260.48,53.99 260.88,53.98 261.27,53.97 261.67,53.97" stroke-dasharray="none" stroke="rgb(31,120,180)" stroke-width="0.75" opacity="1" stroke-opacity="1" fill="none"/>
          </g>
          <g id="Fig:densplot_01.xyplot.lines.group.4.panel.1.1.1">
            <polyline id="Fig:densplot_01.xyplot.lines.group.4.panel.1.1.1.1" points="59.33,54 59.73,54.02 60.12,54.04 60.52,54.08 60.91,54.12 61.31,54.18 61.7,54.26 62.1,54.37 62.5,54.5 62.89,54.67 63.29,54.89 63.68,55.15 64.08,55.46 64.47,55.84 64.87,56.31 65.27,56.85 65.66,57.49 66.06,58.22 66.45,59.04 66.85,59.97 67.24,61.01 67.64,62.15 68.03,63.41 68.43,64.76 68.83,66.21 69.22,67.73 69.62,69.32 70.01,70.97 70.41,72.67 70.8,74.39 71.2,76.14 71.6,77.88 71.99,79.6 72.39,81.31 72.78,82.97 73.18,84.6 73.57,86.17 73.97,87.69 74.37,89.15 74.76,90.54 75.16,91.87 75.55,93.15 75.95,94.37 76.34,95.55 76.74,96.68 77.14,97.78 77.53,98.84 77.93,99.87 78.32,100.88 78.72,101.87 79.11,102.84 79.51,103.8 79.91,104.75 80.3,105.69 80.7,106.62 81.09,107.54 81.49,108.45 81.88,109.34 82.28,110.22 82.67,111.09 83.07,111.95 83.47,112.79 83.86,113.62 84.26,114.44 84.65,115.24 85.05,116.03 85.44,116.82 85.84,117.59 86.24,118.36 86.63,119.12 87.03,119.87 87.42,120.61 87.82,121.34 88.21,122.07 88.61,122.78 89.01,123.49 89.4,124.19 89.8,124.87 90.19,125.54 90.59,126.2 90.98,126.85 91.38,127.49 91.78,128.11 92.17,128.74 92.57,129.35 92.96,129.97 93.36,130.59 93.75,131.21 94.15,131.85 94.54,132.49 94.94,133.16 95.34,133.84 95.73,134.54 96.13,135.27 96.52,136.02 96.92,136.8 97.31,137.61 97.71,138.44 98.11,139.29 98.5,140.17 98.9,141.06 99.29,141.98 99.69,142.91 100.08,143.85 100.48,144.8 100.88,145.76 101.27,146.73 101.67,147.7 102.06,148.67 102.46,149.64 102.85,150.61 103.25,151.59 103.65,152.56 104.04,153.54 104.44,154.52 104.83,155.5 105.23,156.49 105.62,157.49 106.02,158.5 106.41,159.52 106.81,160.55 107.21,161.58 107.6,162.63 108,163.68 108.39,164.73 108.79,165.78 109.18,166.81 109.58,167.84 109.98,168.84 110.37,169.81 110.77,170.75 111.16,171.66 111.56,172.52 111.95,173.34 112.35,174.12 112.75,174.85 113.14,175.54 113.54,176.19 113.93,176.81 114.33,177.4 114.72,177.98 115.12,178.55 115.52,179.11 115.91,179.68 116.31,180.27 116.7,180.88 117.1,181.53 117.49,182.21 117.89,182.93 118.28,183.7 118.68,184.5 119.08,185.35 119.47,186.25 119.87,187.18 120.26,188.14 120.66,189.13 121.05,190.13 121.45,191.14 121.85,192.16 122.24,193.17 122.64,194.17 123.03,195.14 123.43,196.09 123.82,197 124.22,197.88 124.62,198.71 125.01,199.5 125.41,200.23 125.8,200.91 126.2,201.55 126.59,202.14 126.99,202.68 127.39,203.19 127.78,203.67 128.18,204.11 128.57,204.54 128.97,204.95 129.36,205.36 129.76,205.78 130.15,206.2 130.55,206.64 130.95,207.11 131.34,207.6 131.74,208.12 132.13,208.67 132.53,209.26 132.92,209.88 133.32,210.51 133.72,211.17 134.11,211.84 134.51,212.52 134.9,213.2 135.3,213.86 135.69,214.51 136.09,215.13 136.49,215.72 136.88,216.27 137.28,216.77 137.67,217.24 138.07,217.66 138.46,218.02 138.86,218.33 139.26,218.61 139.65,218.84 140.05,219.04 140.44,219.2 140.84,219.34 141.23,219.46 141.63,219.56 142.02,219.64 142.42,219.72 142.82,219.8 143.21,219.87 143.61,219.95 144,220.02 144.4,220.1 144.79,220.18 145.19,220.26 145.59,220.33 145.98,220.4 146.38,220.46 146.77,220.5 147.17,220.52 147.56,220.53 147.96,220.5 148.36,220.45 148.75,220.36 149.15,220.25 149.54,220.1 149.94,219.92 150.33,219.72 150.73,219.48 151.13,219.21 151.52,218.92 151.92,218.61 152.31,218.29 152.71,217.95 153.1,217.6 153.5,217.25 153.89,216.9 154.29,216.55 154.69,216.2 155.08,215.87 155.48,215.55 155.87,215.25 156.27,214.96 156.66,214.68 157.06,214.43 157.46,214.19 157.85,213.97 158.25,213.77 158.64,213.58 159.04,213.4 159.43,213.24 159.83,213.09 160.23,212.95 160.62,212.81 161.02,212.69 161.41,212.56 161.81,212.44 162.2,212.31 162.6,212.18 163,212.04 163.39,211.89 163.79,211.72 164.18,211.53 164.58,211.31 164.97,211.06 165.37,210.78 165.76,210.47 166.16,210.12 166.56,209.74 166.95,209.32 167.35,208.86 167.74,208.38 168.14,207.87 168.53,207.34 168.93,206.79 169.33,206.23 169.72,205.66 170.12,205.08 170.51,204.5 170.91,203.92 171.3,203.34 171.7,202.76 172.1,202.18 172.49,201.59 172.89,201 173.28,200.39 173.68,199.77 174.07,199.13 174.47,198.48 174.87,197.79 175.26,197.09 175.66,196.36 176.05,195.61 176.45,194.83 176.84,194.03 177.24,193.2 177.63,192.36 178.03,191.5 178.43,190.61 178.82,189.72 179.22,188.8 179.61,187.86 180.01,186.89 180.4,185.89 180.8,184.86 181.2,183.79 181.59,182.69 181.99,181.54 182.38,180.35 182.78,179.11 183.17,177.81 183.57,176.47 183.97,175.09 184.36,173.66 184.76,172.19 185.15,170.69 185.55,169.15 185.94,167.59 186.34,166.01 186.74,164.41 187.13,162.8 187.53,161.18 187.92,159.56 188.32,157.94 188.71,156.33 189.11,154.72 189.5,153.12 189.9,151.54 190.3,149.97 190.69,148.42 191.09,146.9 191.48,145.4 191.88,143.93 192.27,142.49 192.67,141.09 193.07,139.72 193.46,138.4 193.86,137.11 194.25,135.87 194.65,134.66 195.04,133.49 195.44,132.35 195.84,131.24 196.23,130.15 196.63,129.09 197.02,128.03 197.42,126.98 197.81,125.93 198.21,124.88 198.61,123.81 199,122.72 199.4,121.6 199.79,120.46 200.19,119.29 200.58,118.09 200.98,116.86 201.37,115.61 201.77,114.33 202.17,113.04 202.56,111.74 202.96,110.43 203.35,109.13 203.75,107.85 204.14,106.59 204.54,105.36 204.94,104.16 205.33,103.02 205.73,101.93 206.12,100.89 206.52,99.92 206.91,99 207.31,98.14 207.71,97.34 208.1,96.59 208.5,95.89 208.89,95.25 209.29,94.64 209.68,94.06 210.08,93.51 210.48,92.97 210.87,92.46 211.27,91.95 211.66,91.44 212.06,90.93 212.45,90.42 212.85,89.89 213.24,89.36 213.64,88.81 214.04,88.25 214.43,87.68 214.83,87.08 215.22,86.48 215.62,85.86 216.01,85.24 216.41,84.61 216.81,83.97 217.2,83.34 217.6,82.7 217.99,82.08 218.39,81.47 218.78,80.88 219.18,80.3 219.58,79.75 219.97,79.22 220.37,78.72 220.76,78.24 221.16,77.79 221.55,77.37 221.95,76.98 222.35,76.62 222.74,76.28 223.14,75.96 223.53,75.66 223.93,75.37 224.32,75.1 224.72,74.84 225.11,74.59 225.51,74.34 225.91,74.1 226.3,73.86 226.7,73.63 227.09,73.4 227.49,73.17 227.88,72.94 228.28,72.71 228.68,72.49 229.07,72.27 229.47,72.06 229.86,71.85 230.26,71.65 230.65,71.45 231.05,71.26 231.45,71.08 231.84,70.9 232.24,70.73 232.63,70.55 233.03,70.38 233.42,70.21 233.82,70.04 234.22,69.86 234.61,69.68 235.01,69.5 235.4,69.32 235.8,69.13 236.19,68.94 236.59,68.75 236.98,68.56 237.38,68.37 237.78,68.18 238.17,68 238.57,67.83 238.96,67.66 239.36,67.5 239.75,67.35 240.15,67.2 240.55,67.07 240.94,66.94 241.34,66.82 241.73,66.71 242.13,66.59 242.52,66.48 242.92,66.37 243.32,66.25 243.71,66.12 244.11,65.97 244.5,65.81 244.9,65.64 245.29,65.43 245.69,65.21 246.09,64.95 246.48,64.66 246.88,64.35 247.27,63.99 247.67,63.61 248.06,63.2 248.46,62.75 248.85,62.29 249.25,61.8 249.65,61.29 250.04,60.77 250.44,60.24 250.83,59.71 251.23,59.19 251.62,58.67 252.02,58.17 252.42,57.69 252.81,57.24 253.21,56.82 253.6,56.43 254,56.07 254.39,55.75 254.79,55.46 255.19,55.21 255.58,54.98 255.98,54.79 256.37,54.63 256.77,54.49 257.16,54.38 257.56,54.29 257.96,54.21 258.35,54.15 258.75,54.1 259.14,54.06 259.54,54.03 259.93,54.01 260.33,54 260.72,53.98 261.12,53.98 261.52,53.97" stroke-dasharray="none" stroke="rgb(31,120,180)" stroke-width="0.75" opacity="1" stroke-opacity="1" fill="none"/>
          </g>
          <g id="Fig:densplot_01.xyplot.lines.group.5.panel.1.1.1">
            <polyline id="Fig:densplot_01.xyplot.lines.group.5.panel.1.1.1.1" points="59.3,53.99 59.69,54.01 60.09,54.04 60.49,54.07 60.88,54.11 61.28,54.17 61.67,54.25 62.07,54.35 62.46,54.49 62.86,54.65 63.26,54.86 63.65,55.11 64.05,55.43 64.44,55.8 64.84,56.26 65.23,56.8 65.63,57.43 66.03,58.16 66.42,58.99 66.82,59.92 67.21,60.96 67.61,62.11 68,63.37 68.4,64.74 68.8,66.2 69.19,67.74 69.59,69.35 69.98,71.02 70.38,72.74 70.77,74.48 71.17,76.24 71.57,78.01 71.96,79.75 72.36,81.47 72.75,83.15 73.15,84.79 73.55,86.37 73.94,87.91 74.34,89.38 74.73,90.78 75.13,92.13 75.52,93.43 75.92,94.68 76.32,95.88 76.71,97.03 77.11,98.15 77.5,99.23 77.9,100.28 78.29,101.31 78.69,102.31 79.09,103.3 79.48,104.27 79.88,105.22 80.27,106.17 80.67,107.1 81.06,108.02 81.46,108.94 81.86,109.85 82.25,110.76 82.65,111.66 83.04,112.56 83.44,113.45 83.83,114.34 84.23,115.22 84.63,116.09 85.02,116.96 85.42,117.8 85.81,118.64 86.21,119.45 86.6,120.25 87,121.02 87.4,121.77 87.79,122.49 88.19,123.18 88.58,123.85 88.98,124.49 89.37,125.11 89.77,125.7 90.17,126.27 90.56,126.83 90.96,127.38 91.35,127.92 91.75,128.45 92.14,128.99 92.54,129.53 92.94,130.09 93.33,130.66 93.73,131.25 94.12,131.87 94.52,132.5 94.91,133.17 95.31,133.86 95.71,134.58 96.1,135.32 96.5,136.1 96.89,136.9 97.29,137.73 97.69,138.59 98.08,139.46 98.48,140.35 98.87,141.25 99.27,142.17 99.66,143.09 100.06,144.03 100.46,144.97 100.85,145.92 101.25,146.87 101.64,147.82 102.04,148.77 102.43,149.73 102.83,150.68 103.23,151.64 103.62,152.61 104.02,153.58 104.41,154.55 104.81,155.52 105.2,156.5 105.6,157.49 106,158.48 106.39,159.47 106.79,160.46 107.18,161.46 107.58,162.46 107.97,163.46 108.37,164.46 108.77,165.46 109.16,166.46 109.56,167.46 109.95,168.45 110.35,169.44 110.74,170.42 111.14,171.39 111.54,172.36 111.93,173.31 112.33,174.25 112.72,175.17 113.12,176.06 113.51,176.93 113.91,177.77 114.31,178.58 114.7,179.36 115.1,180.1 115.49,180.81 115.89,181.49 116.28,182.14 116.68,182.76 117.08,183.36 117.47,183.96 117.87,184.55 118.26,185.15 118.66,185.76 119.06,186.39 119.45,187.05 119.85,187.75 120.24,188.49 120.64,189.27 121.03,190.08 121.43,190.94 121.83,191.83 122.22,192.75 122.62,193.7 123.01,194.65 123.41,195.6 123.8,196.55 124.2,197.47 124.6,198.37 124.99,199.23 125.39,200.04 125.78,200.8 126.18,201.51 126.57,202.16 126.97,202.75 127.37,203.29 127.76,203.78 128.16,204.22 128.55,204.63 128.95,204.99 129.34,205.33 129.74,205.65 130.14,205.96 130.53,206.27 130.93,206.57 131.32,206.89 131.72,207.21 132.11,207.56 132.51,207.93 132.91,208.32 133.3,208.74 133.7,209.19 134.09,209.67 134.49,210.17 134.88,210.7 135.28,211.26 135.68,211.83 136.07,212.42 136.47,213.02 136.86,213.63 137.26,214.24 137.65,214.84 138.05,215.43 138.45,216 138.84,216.55 139.24,217.08 139.63,217.58 140.03,218.06 140.43,218.5 140.82,218.92 141.22,219.31 141.61,219.66 142.01,219.99 142.4,220.29 142.8,220.56 143.2,220.8 143.59,221.01 143.99,221.19 144.38,221.34 144.78,221.45 145.17,221.53 145.57,221.56 145.97,221.56 146.36,221.52 146.76,221.43 147.15,221.31 147.55,221.14 147.94,220.94 148.34,220.7 148.74,220.43 149.13,220.13 149.53,219.81 149.92,219.48 150.32,219.14 150.71,218.8 151.11,218.45 151.51,218.11 151.9,217.78 152.3,217.45 152.69,217.15 153.09,216.85 153.48,216.57 153.88,216.31 154.28,216.05 154.67,215.82 155.07,215.59 155.46,215.36 155.86,215.15 156.25,214.93 156.65,214.72 157.05,214.51 157.44,214.29 157.84,214.07 158.23,213.84 158.63,213.61 159.02,213.37 159.42,213.12 159.82,212.86 160.21,212.6 160.61,212.34 161,212.06 161.4,211.78 161.79,211.5 162.19,211.22 162.59,210.93 162.98,210.63 163.38,210.34 163.77,210.03 164.17,209.72 164.57,209.41 164.96,209.08 165.36,208.74 165.75,208.39 166.15,208.03 166.54,207.65 166.94,207.26 167.34,206.85 167.73,206.42 168.13,205.98 168.52,205.52 168.92,205.04 169.31,204.55 169.71,204.04 170.11,203.52 170.5,202.99 170.9,202.44 171.29,201.89 171.69,201.32 172.08,200.75 172.48,200.17 172.88,199.58 173.27,198.98 173.67,198.39 174.06,197.79 174.46,197.18 174.85,196.58 175.25,195.97 175.65,195.36 176.04,194.74 176.44,194.12 176.83,193.48 177.23,192.82 177.62,192.15 178.02,191.45 178.42,190.73 178.81,189.97 179.21,189.17 179.6,188.34 180,187.45 180.39,186.51 180.79,185.53 181.19,184.51 181.58,183.43 181.98,182.31 182.37,181.14 182.77,179.93 183.16,178.67 183.56,177.38 183.96,176.04 184.35,174.67 184.75,173.27 185.14,171.83 185.54,170.36 185.94,168.86 186.33,167.33 186.73,165.76 187.12,164.18 187.52,162.57 187.91,160.94 188.31,159.3 188.71,157.64 189.1,155.98 189.5,154.31 189.89,152.65 190.29,151.01 190.68,149.38 191.08,147.78 191.48,146.21 191.87,144.67 192.27,143.17 192.66,141.71 193.06,140.3 193.45,138.94 193.85,137.61 194.25,136.33 194.64,135.09 195.04,133.88 195.43,132.7 195.83,131.54 196.22,130.41 196.62,129.28 197.02,128.16 197.41,127.04 197.81,125.92 198.2,124.79 198.6,123.66 198.99,122.51 199.39,121.35 199.79,120.19 200.18,119.01 200.58,117.83 200.97,116.65 201.37,115.46 201.76,114.27 202.16,113.09 202.56,111.91 202.95,110.74 203.35,109.58 203.74,108.44 204.14,107.3 204.53,106.18 204.93,105.08 205.33,104.01 205.72,102.95 206.12,101.93 206.51,100.93 206.91,99.96 207.31,99.03 207.7,98.13 208.1,97.27 208.49,96.46 208.89,95.69 209.28,94.95 209.68,94.26 210.08,93.6 210.47,92.98 210.87,92.39 211.26,91.82 211.66,91.28 212.05,90.75 212.45,90.24 212.85,89.73 213.24,89.22 213.64,88.72 214.03,88.2 214.43,87.68 214.82,87.14 215.22,86.59 215.62,86.03 216.01,85.45 216.41,84.86 216.8,84.27 217.2,83.66 217.59,83.06 217.99,82.45 218.39,81.84 218.78,81.25 219.18,80.66 219.57,80.09 219.97,79.53 220.36,79 220.76,78.48 221.16,77.99 221.55,77.53 221.95,77.09 222.34,76.68 222.74,76.3 223.13,75.93 223.53,75.6 223.93,75.28 224.32,74.98 224.72,74.71 225.11,74.45 225.51,74.2 225.9,73.96 226.3,73.73 226.7,73.5 227.09,73.28 227.49,73.06 227.88,72.84 228.28,72.62 228.67,72.41 229.07,72.19 229.47,71.97 229.86,71.75 230.26,71.54 230.65,71.32 231.05,71.11 231.45,70.9 231.84,70.69 232.24,70.49 232.63,70.29 233.03,70.11 233.42,69.93 233.82,69.75 234.22,69.59 234.61,69.44 235.01,69.3 235.4,69.16 235.8,69.04 236.19,68.92 236.59,68.82 236.99,68.72 237.38,68.62 237.78,68.53 238.17,68.45 238.57,68.36 238.96,68.27 239.36,68.19 239.76,68.09 240.15,67.99 240.55,67.88 240.94,67.76 241.34,67.63 241.73,67.48 242.13,67.32 242.53,67.13 242.92,66.94 243.32,66.72 243.71,66.48 244.11,66.22 244.5,65.94 244.9,65.64 245.3,65.31 245.69,64.97 246.09,64.61 246.48,64.22 246.88,63.82 247.27,63.39 247.67,62.94 248.07,62.48 248.46,62.01 248.86,61.52 249.25,61.02 249.65,60.52 250.04,60.02 250.44,59.51 250.84,59.02 251.23,58.53 251.63,58.07 252.02,57.62 252.42,57.19 252.82,56.79 253.21,56.41 253.61,56.07 254,55.76 254.4,55.48 254.79,55.23 255.19,55.02 255.59,54.82 255.98,54.66 256.38,54.52 256.77,54.41 257.17,54.31 257.56,54.23 257.96,54.17 258.36,54.12 258.75,54.08 259.15,54.05 259.54,54.02 259.94,54 260.33,53.99 260.73,53.98 261.13,53.97 261.52,53.97" stroke-dasharray="none" stroke="rgb(31,120,180)" stroke-width="0.75" opacity="1" stroke-opacity="1" fill="none"/>
          </g>
          <g id="Fig:densplot_01.xyplot.lines.group.6.panel.1.1.1">
            <polyline id="Fig:densplot_01.xyplot.lines.group.6.panel.1.1.1.1" points="59.1,54 59.49,54.01 59.89,54.04 60.29,54.07 60.68,54.12 61.08,54.18 61.48,54.26 61.87,54.36 62.27,54.48 62.67,54.64 63.06,54.85 63.46,55.11 63.86,55.42 64.25,55.79 64.65,56.24 65.05,56.76 65.44,57.38 65.84,58.09 66.24,58.91 66.63,59.84 67.03,60.89 67.43,62.04 67.82,63.3 68.22,64.66 68.62,66.13 69.01,67.69 69.41,69.35 69.8,71.07 70.2,72.85 70.6,74.67 70.99,76.52 71.39,78.39 71.79,80.26 72.18,82.11 72.58,83.95 72.98,85.74 73.37,87.5 73.77,89.21 74.17,90.88 74.56,92.49 74.96,94.05 75.36,95.56 75.75,97.02 76.15,98.43 76.55,99.8 76.94,101.14 77.34,102.44 77.74,103.71 78.13,104.96 78.53,106.18 78.93,107.37 79.32,108.55 79.72,109.7 80.12,110.84 80.51,111.95 80.91,113.05 81.3,114.12 81.7,115.17 82.1,116.19 82.49,117.19 82.89,118.16 83.29,119.11 83.68,120.04 84.08,120.94 84.48,121.82 84.87,122.67 85.27,123.5 85.67,124.31 86.06,125.1 86.46,125.87 86.86,126.63 87.25,127.37 87.65,128.09 88.05,128.8 88.44,129.5 88.84,130.19 89.24,130.87 89.63,131.55 90.03,132.22 90.43,132.89 90.82,133.57 91.22,134.25 91.62,134.93 92.01,135.63 92.41,136.33 92.8,137.05 93.2,137.79 93.6,138.54 93.99,139.31 94.39,140.1 94.79,140.92 95.18,141.74 95.58,142.59 95.98,143.45 96.37,144.32 96.77,145.21 97.17,146.1 97.56,147.01 97.96,147.91 98.36,148.83 98.75,149.74 99.15,150.65 99.55,151.56 99.94,152.47 100.34,153.38 100.74,154.28 101.13,155.19 101.53,156.09 101.93,157 102.32,157.91 102.72,158.82 103.12,159.73 103.51,160.65 103.91,161.58 104.31,162.52 104.7,163.46 105.1,164.41 105.49,165.36 105.89,166.31 106.29,167.27 106.68,168.22 107.08,169.17 107.48,170.12 107.87,171.05 108.27,171.99 108.67,172.91 109.06,173.82 109.46,174.73 109.86,175.63 110.25,176.52 110.65,177.4 111.05,178.28 111.44,179.15 111.84,180.02 112.24,180.88 112.63,181.75 113.03,182.6 113.43,183.45 113.82,184.29 114.22,185.11 114.62,185.93 115.01,186.72 115.41,187.49 115.81,188.25 116.2,188.98 116.6,189.68 116.99,190.35 117.39,191 117.79,191.64 118.18,192.25 118.58,192.85 118.98,193.43 119.37,194.01 119.77,194.59 120.17,195.18 120.56,195.77 120.96,196.37 121.36,196.99 121.75,197.63 122.15,198.27 122.55,198.94 122.94,199.62 123.34,200.31 123.74,201 124.13,201.69 124.53,202.39 124.93,203.07 125.32,203.74 125.72,204.4 126.12,205.03 126.51,205.64 126.91,206.23 127.31,206.79 127.7,207.34 128.1,207.86 128.49,208.36 128.89,208.84 129.29,209.31 129.68,209.77 130.08,210.21 130.48,210.66 130.87,211.1 131.27,211.53 131.67,211.97 132.06,212.42 132.46,212.86 132.86,213.31 133.25,213.75 133.65,214.2 134.05,214.64 134.44,215.08 134.84,215.51 135.24,215.93 135.63,216.33 136.03,216.7 136.43,217.06 136.82,217.39 137.22,217.68 137.62,217.95 138.01,218.17 138.41,218.36 138.81,218.5 139.2,218.61 139.6,218.68 140,218.71 140.39,218.72 140.79,218.7 141.18,218.66 141.58,218.61 141.98,218.54 142.37,218.48 142.77,218.42 143.17,218.37 143.56,218.32 143.96,218.29 144.36,218.26 144.75,218.24 145.15,218.23 145.55,218.21 145.94,218.18 146.34,218.13 146.74,218.07 147.13,217.97 147.53,217.85 147.93,217.68 148.32,217.47 148.72,217.23 149.12,216.94 149.51,216.61 149.91,216.26 150.31,215.87 150.7,215.47 151.1,215.04 151.5,214.61 151.89,214.17 152.29,213.74 152.68,213.31 153.08,212.89 153.48,212.47 153.87,212.06 154.27,211.66 154.67,211.27 155.06,210.87 155.46,210.47 155.86,210.06 156.25,209.65 156.65,209.22 157.05,208.77 157.44,208.31 157.84,207.82 158.24,207.32 158.63,206.79 159.03,206.24 159.43,205.67 159.82,205.09 160.22,204.49 160.62,203.88 161.01,203.26 161.41,202.64 161.81,202.01 162.2,201.39 162.6,200.77 163,200.16 163.39,199.56 163.79,198.98 164.18,198.43 164.58,197.89 164.98,197.38 165.37,196.9 165.77,196.44 166.17,196.01 166.56,195.61 166.96,195.24 167.36,194.89 167.75,194.56 168.15,194.25 168.55,193.94 168.94,193.64 169.34,193.34 169.74,193.02 170.13,192.69 170.53,192.32 170.93,191.93 171.32,191.5 171.72,191.02 172.12,190.5 172.51,189.93 172.91,189.31 173.31,188.63 173.7,187.9 174.1,187.13 174.5,186.31 174.89,185.45 175.29,184.56 175.68,183.63 176.08,182.68 176.48,181.7 176.87,180.71 177.27,179.69 177.67,178.67 178.06,177.63 178.46,176.58 178.86,175.52 179.25,174.44 179.65,173.35 180.05,172.24 180.44,171.12 180.84,169.98 181.24,168.82 181.63,167.66 182.03,166.47 182.43,165.28 182.82,164.09 183.22,162.89 183.62,161.7 184.01,160.52 184.41,159.35 184.81,158.2 185.2,157.06 185.6,155.95 186,154.87 186.39,153.81 186.79,152.77 187.19,151.75 187.58,150.74 187.98,149.75 188.37,148.77 188.77,147.79 189.17,146.8 189.56,145.82 189.96,144.82 190.36,143.8 190.75,142.78 191.15,141.73 191.55,140.67 191.94,139.59 192.34,138.5 192.74,137.38 193.13,136.25 193.53,135.12 193.93,133.97 194.32,132.81 194.72,131.65 195.12,130.49 195.51,129.33 195.91,128.16 196.31,127.01 196.7,125.86 197.1,124.72 197.5,123.59 197.89,122.47 198.29,121.37 198.69,120.29 199.08,119.24 199.48,118.2 199.87,117.18 200.27,116.19 200.67,115.22 201.06,114.27 201.46,113.35 201.86,112.44 202.25,111.56 202.65,110.69 203.05,109.84 203.44,109 203.84,108.17 204.24,107.34 204.63,106.52 205.03,105.71 205.43,104.9 205.82,104.1 206.22,103.3 206.62,102.51 207.01,101.72 207.41,100.93 207.81,100.16 208.2,99.4 208.6,98.65 209,97.92 209.39,97.2 209.79,96.49 210.19,95.81 210.58,95.13 210.98,94.48 211.37,93.85 211.77,93.23 212.17,92.63 212.56,92.05 212.96,91.48 213.36,90.93 213.75,90.39 214.15,89.87 214.55,89.36 214.94,88.86 215.34,88.37 215.74,87.89 216.13,87.41 216.53,86.94 216.93,86.48 217.32,86.02 217.72,85.57 218.12,85.12 218.51,84.66 218.91,84.21 219.31,83.76 219.7,83.3 220.1,82.85 220.5,82.39 220.89,81.94 221.29,81.49 221.69,81.03 222.08,80.58 222.48,80.14 222.88,79.7 223.27,79.26 223.67,78.83 224.06,78.41 224.46,77.99 224.86,77.58 225.25,77.18 225.65,76.78 226.05,76.4 226.44,76.01 226.84,75.64 227.24,75.28 227.63,74.92 228.03,74.57 228.43,74.24 228.82,73.9 229.22,73.58 229.62,73.27 230.01,72.97 230.41,72.69 230.81,72.41 231.2,72.14 231.6,71.89 232,71.65 232.39,71.42 232.79,71.2 233.19,71 233.58,70.8 233.98,70.61 234.38,70.43 234.77,70.26 235.17,70.09 235.56,69.93 235.96,69.78 236.36,69.62 236.75,69.47 237.15,69.33 237.55,69.19 237.94,69.05 238.34,68.91 238.74,68.77 239.13,68.64 239.53,68.51 239.93,68.38 240.32,68.25 240.72,68.13 241.12,68 241.51,67.87 241.91,67.73 242.31,67.59 242.7,67.44 243.1,67.28 243.5,67.1 243.89,66.9 244.29,66.69 244.69,66.45 245.08,66.19 245.48,65.9 245.88,65.58 246.27,65.22 246.67,64.84 247.06,64.43 247.46,63.99 247.86,63.53 248.25,63.04 248.65,62.52 249.05,62 249.44,61.45 249.84,60.9 250.24,60.35 250.63,59.81 251.03,59.27 251.43,58.74 251.82,58.23 252.22,57.75 252.62,57.3 253.01,56.88 253.41,56.48 253.81,56.12 254.2,55.8 254.6,55.51 255,55.25 255.39,55.03 255.79,54.83 256.19,54.67 256.58,54.53 256.98,54.41 257.38,54.31 257.77,54.23 258.17,54.17 258.56,54.12 258.96,54.08 259.36,54.05 259.75,54.02 260.15,54 260.55,53.99 260.94,53.98 261.34,53.97 261.74,53.97" stroke-dasharray="none" stroke="rgb(31,120,180)" stroke-width="0.75" opacity="1" stroke-opacity="1" fill="none"/>
          </g>
          <g id="Fig:densplot_01.xyplot.lines.group.7.panel.1.1.1">
            <polyline id="Fig:densplot_01.xyplot.lines.group.7.panel.1.1.1.1" points="59.25,53.99 59.64,54.01 60.04,54.03 60.43,54.06 60.83,54.11 61.23,54.16 61.62,54.23 62.02,54.33 62.41,54.45 62.81,54.61 63.21,54.81 63.6,55.05 64,55.35 64.39,55.7 64.79,56.13 65.19,56.64 65.58,57.24 65.98,57.94 66.37,58.73 66.77,59.63 67.17,60.63 67.56,61.73 67.96,62.94 68.35,64.26 68.75,65.68 69.15,67.18 69.54,68.75 69.94,70.38 70.33,72.07 70.73,73.79 71.13,75.53 71.52,77.27 71.92,79.01 72.31,80.73 72.71,82.42 73.11,84.07 73.5,85.68 73.9,87.24 74.29,88.75 74.69,90.21 75.09,91.61 75.48,92.96 75.88,94.27 76.27,95.54 76.67,96.78 77.07,97.99 77.46,99.17 77.86,100.33 78.25,101.48 78.65,102.62 79.05,103.75 79.44,104.87 79.84,105.99 80.23,107.11 80.63,108.23 81.03,109.35 81.42,110.47 81.82,111.59 82.21,112.7 82.61,113.81 83.01,114.91 83.4,116 83.8,117.07 84.19,118.12 84.59,119.16 84.99,120.16 85.38,121.15 85.78,122.1 86.17,123.03 86.57,123.93 86.97,124.8 87.36,125.64 87.76,126.45 88.15,127.24 88.55,128 88.95,128.75 89.34,129.49 89.74,130.21 90.13,130.92 90.53,131.63 90.93,132.34 91.32,133.06 91.72,133.78 92.11,134.5 92.51,135.24 92.91,135.99 93.3,136.74 93.7,137.52 94.09,138.3 94.49,139.09 94.89,139.89 95.28,140.69 95.68,141.5 96.07,142.31 96.47,143.11 96.87,143.91 97.26,144.69 97.66,145.47 98.05,146.23 98.45,146.98 98.85,147.72 99.24,148.44 99.64,149.16 100.03,149.88 100.43,150.59 100.83,151.31 101.22,152.03 101.62,152.78 102.01,153.54 102.41,154.33 102.81,155.15 103.2,156 103.6,156.89 103.99,157.82 104.39,158.79 104.79,159.79 105.18,160.83 105.58,161.9 105.97,162.99 106.37,164.1 106.77,165.22 107.16,166.35 107.56,167.47 107.95,168.58 108.35,169.67 108.74,170.73 109.14,171.77 109.54,172.78 109.93,173.74 110.33,174.67 110.72,175.57 111.12,176.43 111.52,177.26 111.91,178.06 112.31,178.84 112.7,179.6 113.1,180.34 113.5,181.08 113.89,181.81 114.29,182.54 114.68,183.27 115.08,184 115.48,184.73 115.87,185.47 116.27,186.22 116.66,186.98 117.06,187.74 117.46,188.52 117.85,189.3 118.25,190.08 118.64,190.88 119.04,191.68 119.44,192.5 119.83,193.32 120.23,194.15 120.62,194.99 121.02,195.83 121.42,196.67 121.81,197.52 122.21,198.36 122.6,199.19 123,200.02 123.4,200.83 123.79,201.63 124.19,202.41 124.58,203.17 124.98,203.9 125.38,204.61 125.77,205.29 126.17,205.93 126.56,206.54 126.96,207.12 127.36,207.66 127.75,208.17 128.15,208.65 128.54,209.09 128.94,209.51 129.34,209.89 129.73,210.25 130.13,210.58 130.52,210.9 130.92,211.21 131.32,211.51 131.71,211.8 132.11,212.08 132.5,212.38 132.9,212.67 133.3,212.98 133.69,213.29 134.09,213.61 134.48,213.94 134.88,214.28 135.28,214.62 135.67,214.96 136.07,215.3 136.46,215.63 136.86,215.94 137.26,216.24 137.65,216.52 138.05,216.78 138.44,217.01 138.84,217.21 139.24,217.4 139.63,217.56 140.03,217.7 140.42,217.83 140.82,217.95 141.22,218.06 141.61,218.17 142.01,218.28 142.4,218.4 142.8,218.51 143.2,218.63 143.59,218.75 143.99,218.87 144.38,218.98 144.78,219.07 145.18,219.13 145.57,219.17 145.97,219.17 146.36,219.12 146.76,219.03 147.16,218.89 147.55,218.7 147.95,218.44 148.34,218.13 148.74,217.78 149.14,217.38 149.53,216.95 149.93,216.49 150.32,216.01 150.72,215.51 151.12,215.02 151.51,214.53 151.91,214.05 152.3,213.59 152.7,213.16 153.1,212.76 153.49,212.4 153.89,212.07 154.28,211.78 154.68,211.53 155.08,211.31 155.47,211.13 155.87,210.98 156.26,210.86 156.66,210.76 157.06,210.67 157.45,210.6 157.85,210.52 158.24,210.44 158.64,210.34 159.04,210.22 159.43,210.06 159.83,209.86 160.22,209.61 160.62,209.31 161.02,208.94 161.41,208.51 161.81,208.03 162.2,207.49 162.6,206.89 163,206.26 163.39,205.58 163.79,204.88 164.18,204.16 164.58,203.44 164.98,202.73 165.37,202.03 165.77,201.36 166.16,200.73 166.56,200.13 166.96,199.58 167.35,199.08 167.75,198.62 168.14,198.2 168.54,197.83 168.93,197.48 169.33,197.16 169.73,196.86 170.12,196.57 170.52,196.29 170.91,195.99 171.31,195.68 171.71,195.35 172.1,194.98 172.5,194.59 172.89,194.15 173.29,193.67 173.69,193.14 174.08,192.55 174.48,191.92 174.87,191.24 175.27,190.5 175.67,189.72 176.06,188.88 176.46,187.99 176.85,187.05 177.25,186.06 177.65,185.03 178.04,183.96 178.44,182.86 178.83,181.73 179.23,180.57 179.63,179.39 180.02,178.19 180.42,176.99 180.81,175.78 181.21,174.58 181.61,173.39 182,172.21 182.4,171.05 182.79,169.9 183.19,168.77 183.59,167.66 183.98,166.56 184.38,165.46 184.77,164.37 185.17,163.27 185.57,162.17 185.96,161.06 186.36,159.92 186.75,158.76 187.15,157.58 187.55,156.37 187.94,155.13 188.34,153.86 188.73,152.56 189.13,151.24 189.53,149.9 189.92,148.54 190.32,147.17 190.71,145.79 191.11,144.41 191.51,143.04 191.9,141.66 192.3,140.3 192.69,138.95 193.09,137.62 193.49,136.31 193.88,135.02 194.28,133.75 194.67,132.5 195.07,131.28 195.47,130.08 195.86,128.92 196.26,127.78 196.65,126.66 197.05,125.57 197.45,124.51 197.84,123.46 198.24,122.44 198.63,121.43 199.03,120.44 199.43,119.47 199.82,118.5 200.22,117.55 200.61,116.59 201.01,115.64 201.41,114.69 201.8,113.74 202.2,112.78 202.59,111.82 202.99,110.85 203.39,109.87 203.78,108.89 204.18,107.9 204.57,106.91 204.97,105.92 205.37,104.93 205.76,103.94 206.16,102.97 206.55,102 206.95,101.06 207.35,100.13 207.74,99.22 208.14,98.34 208.53,97.49 208.93,96.68 209.33,95.89 209.72,95.14 210.12,94.43 210.51,93.75 210.91,93.11 211.31,92.5 211.7,91.92 212.1,91.38 212.49,90.86 212.89,90.36 213.29,89.88 213.68,89.42 214.08,88.96 214.47,88.52 214.87,88.07 215.27,87.63 215.66,87.18 216.06,86.72 216.45,86.25 216.85,85.77 217.25,85.27 217.64,84.76 218.04,84.23 218.43,83.69 218.83,83.14 219.23,82.57 219.62,82 220.02,81.42 220.41,80.84 220.81,80.27 221.21,79.7 221.6,79.14 222,78.59 222.39,78.06 222.79,77.55 223.19,77.06 223.58,76.59 223.98,76.14 224.37,75.72 224.77,75.32 225.17,74.94 225.56,74.59 225.96,74.26 226.35,73.96 226.75,73.67 227.14,73.4 227.54,73.16 227.94,72.93 228.33,72.71 228.73,72.51 229.12,72.32 229.52,72.13 229.92,71.96 230.31,71.78 230.71,71.61 231.1,71.44 231.5,71.26 231.9,71.07 232.29,70.88 232.69,70.68 233.08,70.47 233.48,70.25 233.88,70.02 234.27,69.79 234.67,69.55 235.06,69.3 235.46,69.06 235.86,68.82 236.25,68.59 236.65,68.36 237.04,68.14 237.44,67.93 237.84,67.74 238.23,67.56 238.63,67.39 239.02,67.23 239.42,67.09 239.82,66.96 240.21,66.83 240.61,66.71 241,66.6 241.4,66.49 241.8,66.38 242.19,66.27 242.59,66.16 242.98,66.04 243.38,65.91 243.78,65.76 244.17,65.6 244.57,65.43 244.96,65.23 245.36,65.01 245.76,64.77 246.15,64.49 246.55,64.19 246.94,63.86 247.34,63.49 247.74,63.1 248.13,62.68 248.53,62.23 248.92,61.76 249.32,61.27 249.72,60.77 250.11,60.26 250.51,59.74 250.9,59.23 251.3,58.73 251.7,58.23 252.09,57.76 252.49,57.31 252.88,56.89 253.28,56.5 253.68,56.14 254.07,55.82 254.47,55.52 254.86,55.27 255.26,55.04 255.66,54.84 256.05,54.67 256.45,54.53 256.84,54.41 257.24,54.32 257.64,54.23 258.03,54.17 258.43,54.12 258.82,54.08 259.22,54.05 259.62,54.02 260.01,54 260.41,53.99 260.8,53.98 261.2,53.97 261.6,53.97" stroke-dasharray="none" stroke="rgb(31,120,180)" stroke-width="0.75" opacity="1" stroke-opacity="1" fill="none"/>
          </g>
          <g id="Fig:densplot_01.xyplot.lines.group.8.panel.1.1.1">
            <polyline id="Fig:densplot_01.xyplot.lines.group.8.panel.1.1.1.1" points="59.31,53.99 59.7,54.01 60.1,54.03 60.5,54.06 60.89,54.1 61.29,54.15 61.68,54.22 62.08,54.31 62.47,54.43 62.87,54.58 63.27,54.77 63.66,55.01 64.06,55.29 64.45,55.63 64.85,56.05 65.24,56.55 65.64,57.13 66.04,57.8 66.43,58.57 66.83,59.44 67.22,60.41 67.62,61.48 68.01,62.68 68.41,63.97 68.81,65.36 69.2,66.84 69.6,68.4 69.99,70.03 70.39,71.71 70.79,73.44 71.18,75.2 71.58,76.98 71.97,78.76 72.37,80.53 72.76,82.28 73.16,84.01 73.56,85.69 73.95,87.34 74.35,88.93 74.74,90.46 75.14,91.95 75.53,93.38 75.93,94.76 76.33,96.1 76.72,97.39 77.12,98.64 77.51,99.84 77.91,101.02 78.3,102.16 78.7,103.27 79.1,104.36 79.49,105.44 79.89,106.49 80.28,107.52 80.68,108.54 81.07,109.54 81.47,110.53 81.87,111.51 82.26,112.47 82.66,113.42 83.05,114.35 83.45,115.28 83.84,116.18 84.24,117.07 84.64,117.95 85.03,118.81 85.43,119.65 85.82,120.48 86.22,121.28 86.61,122.06 87.01,122.82 87.41,123.55 87.8,124.27 88.2,124.96 88.59,125.62 88.99,126.27 89.38,126.9 89.78,127.51 90.18,128.1 90.57,128.69 90.97,129.27 91.36,129.84 91.76,130.42 92.15,130.99 92.55,131.58 92.95,132.18 93.34,132.79 93.74,133.43 94.13,134.08 94.53,134.76 94.93,135.47 95.32,136.2 95.72,136.96 96.11,137.75 96.51,138.57 96.9,139.42 97.3,140.29 97.7,141.19 98.09,142.1 98.49,143.03 98.88,143.97 99.28,144.92 99.67,145.87 100.07,146.82 100.47,147.77 100.86,148.71 101.26,149.63 101.65,150.55 102.05,151.46 102.44,152.35 102.84,153.24 103.24,154.12 103.63,155 104.03,155.88 104.42,156.77 104.82,157.67 105.21,158.58 105.61,159.51 106.01,160.46 106.4,161.44 106.8,162.45 107.19,163.47 107.59,164.52 107.98,165.59 108.38,166.68 108.78,167.78 109.17,168.89 109.57,170.01 109.96,171.12 110.36,172.23 110.75,173.33 111.15,174.41 111.55,175.46 111.94,176.5 112.34,177.5 112.73,178.48 113.13,179.42 113.52,180.33 113.92,181.21 114.32,182.07 114.71,182.9 115.11,183.7 115.5,184.49 115.9,185.27 116.3,186.04 116.69,186.8 117.09,187.57 117.48,188.34 117.88,189.11 118.27,189.89 118.67,190.68 119.07,191.47 119.46,192.28 119.86,193.08 120.25,193.88 120.65,194.67 121.04,195.45 121.44,196.23 121.84,196.98 122.23,197.71 122.63,198.42 123.02,199.11 123.42,199.77 123.81,200.42 124.21,201.04 124.61,201.64 125,202.22 125.4,202.79 125.79,203.34 126.19,203.88 126.58,204.41 126.98,204.92 127.38,205.42 127.77,205.9 128.17,206.36 128.56,206.81 128.96,207.23 129.35,207.63 129.75,208 130.15,208.35 130.54,208.69 130.94,209 131.33,209.31 131.73,209.61 132.12,209.9 132.52,210.21 132.92,210.52 133.31,210.86 133.71,211.21 134.1,211.59 134.5,211.99 134.89,212.42 135.29,212.87 135.69,213.33 136.08,213.81 136.48,214.28 136.87,214.75 137.27,215.21 137.66,215.65 138.06,216.06 138.46,216.44 138.85,216.79 139.25,217.11 139.64,217.39 140.04,217.64 140.44,217.86 140.83,218.06 141.23,218.24 141.62,218.4 142.02,218.55 142.41,218.7 142.81,218.84 143.21,218.99 143.6,219.13 144,219.26 144.39,219.4 144.79,219.53 145.18,219.65 145.58,219.75 145.98,219.84 146.37,219.91 146.77,219.95 147.16,219.96 147.56,219.94 147.95,219.88 148.35,219.77 148.75,219.63 149.14,219.44 149.54,219.21 149.93,218.94 150.33,218.63 150.72,218.28 151.12,217.89 151.52,217.47 151.91,217.02 152.31,216.56 152.7,216.08 153.1,215.6 153.49,215.12 153.89,214.64 154.29,214.18 154.68,213.75 155.08,213.33 155.47,212.95 155.87,212.6 156.26,212.29 156.66,212.01 157.06,211.76 157.45,211.55 157.85,211.38 158.24,211.23 158.64,211.11 159.03,211 159.43,210.9 159.83,210.8 160.22,210.7 160.62,210.59 161.01,210.47 161.41,210.33 161.81,210.16 162.2,209.97 162.6,209.75 162.99,209.5 163.39,209.23 163.78,208.93 164.18,208.6 164.58,208.25 164.97,207.88 165.37,207.49 165.76,207.09 166.16,206.68 166.55,206.26 166.95,205.83 167.35,205.39 167.74,204.95 168.14,204.49 168.53,204.03 168.93,203.55 169.32,203.06 169.72,202.55 170.12,202.03 170.51,201.49 170.91,200.93 171.3,200.35 171.7,199.75 172.09,199.13 172.49,198.49 172.89,197.84 173.28,197.17 173.68,196.48 174.07,195.77 174.47,195.04 174.86,194.29 175.26,193.52 175.66,192.72 176.05,191.9 176.45,191.05 176.84,190.15 177.24,189.22 177.63,188.26 178.03,187.26 178.43,186.22 178.82,185.15 179.22,184.05 179.61,182.91 180.01,181.75 180.4,180.56 180.8,179.36 181.2,178.15 181.59,176.93 181.99,175.7 182.38,174.47 182.78,173.24 183.17,172 183.57,170.77 183.97,169.53 184.36,168.3 184.76,167.05 185.15,165.8 185.55,164.55 185.95,163.28 186.34,161.99 186.74,160.69 187.13,159.38 187.53,158.05 187.92,156.7 188.32,155.34 188.72,153.96 189.11,152.58 189.51,151.18 189.9,149.79 190.3,148.39 190.69,147.01 191.09,145.63 191.49,144.27 191.88,142.93 192.28,141.62 192.67,140.33 193.07,139.07 193.46,137.84 193.86,136.63 194.26,135.44 194.65,134.28 195.05,133.13 195.44,131.99 195.84,130.87 196.23,129.75 196.63,128.63 197.03,127.51 197.42,126.39 197.82,125.26 198.21,124.13 198.61,122.99 199,121.86 199.4,120.71 199.8,119.57 200.19,118.43 200.59,117.28 200.98,116.14 201.38,115.01 201.77,113.87 202.17,112.74 202.57,111.62 202.96,110.5 203.36,109.39 203.75,108.29 204.15,107.21 204.54,106.13 204.94,105.08 205.34,104.04 205.73,103.03 206.13,102.04 206.52,101.09 206.92,100.16 207.32,99.26 207.71,98.4 208.11,97.57 208.5,96.77 208.9,96.01 209.29,95.28 209.69,94.58 210.09,93.9 210.48,93.25 210.88,92.62 211.27,92 211.67,91.41 212.06,90.83 212.46,90.26 212.86,89.7 213.25,89.15 213.65,88.61 214.04,88.08 214.44,87.56 214.83,87.04 215.23,86.54 215.63,86.04 216.02,85.54 216.42,85.04 216.81,84.55 217.21,84.06 217.6,83.57 218,83.08 218.4,82.59 218.79,82.09 219.19,81.59 219.58,81.08 219.98,80.57 220.37,80.06 220.77,79.54 221.17,79.02 221.56,78.5 221.96,77.99 222.35,77.47 222.75,76.97 223.14,76.47 223.54,75.99 223.94,75.51 224.33,75.06 224.73,74.63 225.12,74.22 225.52,73.83 225.91,73.46 226.31,73.13 226.71,72.81 227.1,72.52 227.5,72.26 227.89,72.02 228.29,71.8 228.69,71.61 229.08,71.43 229.48,71.26 229.87,71.11 230.27,70.96 230.66,70.82 231.06,70.69 231.46,70.56 231.85,70.43 232.25,70.3 232.64,70.16 233.04,70.03 233.43,69.89 233.83,69.76 234.23,69.62 234.62,69.48 235.02,69.34 235.41,69.2 235.81,69.06 236.2,68.93 236.6,68.79 237,68.65 237.39,68.52 237.79,68.37 238.18,68.23 238.58,68.08 238.97,67.92 239.37,67.76 239.77,67.58 240.16,67.4 240.56,67.2 240.95,67 241.35,66.78 241.74,66.56 242.14,66.33 242.54,66.09 242.93,65.84 243.33,65.59 243.72,65.33 244.12,65.07 244.51,64.8 244.91,64.52 245.31,64.24 245.7,63.94 246.1,63.64 246.49,63.32 246.89,62.99 247.28,62.65 247.68,62.28 248.08,61.9 248.47,61.51 248.87,61.1 249.26,60.67 249.66,60.24 250.05,59.79 250.45,59.34 250.85,58.89 251.24,58.45 251.64,58.01 252.03,57.59 252.43,57.18 252.83,56.8 253.22,56.43 253.62,56.1 254.01,55.8 254.41,55.52 254.8,55.27 255.2,55.05 255.6,54.86 255.99,54.69 256.39,54.55 256.78,54.43 257.18,54.33 257.57,54.25 257.97,54.18 258.37,54.13 258.76,54.09 259.16,54.05 259.55,54.03 259.95,54.01 260.34,53.99 260.74,53.98 261.14,53.97 261.53,53.97" stroke-dasharray="none" stroke="rgb(31,120,180)" stroke-width="0.75" opacity="1" stroke-opacity="1" fill="none"/>
          </g>
          <g id="Fig:densplot_01.xyplot.lines.group.9.panel.1.1.1">
            <polyline id="Fig:densplot_01.xyplot.lines.group.9.panel.1.1.1.1" points="59,53.99 59.4,54.01 59.79,54.03 60.19,54.06 60.59,54.1 60.98,54.16 61.38,54.23 61.78,54.33 62.18,54.44 62.57,54.59 62.97,54.78 63.37,55.01 63.76,55.3 64.16,55.65 64.56,56.07 64.95,56.57 65.35,57.15 65.75,57.82 66.14,58.6 66.54,59.48 66.94,60.48 67.33,61.6 67.73,62.83 68.13,64.16 68.53,65.61 68.92,67.16 69.32,68.8 69.72,70.54 70.11,72.35 70.51,74.22 70.91,76.14 71.3,78.08 71.7,80.05 72.1,82.03 72.49,84 72.89,85.95 73.29,87.87 73.68,89.76 74.08,91.6 74.48,93.4 74.88,95.15 75.27,96.85 75.67,98.5 76.07,100.09 76.46,101.62 76.86,103.1 77.26,104.54 77.65,105.92 78.05,107.26 78.45,108.56 78.84,109.8 79.24,111 79.64,112.16 80.03,113.27 80.43,114.35 80.83,115.4 81.23,116.41 81.62,117.4 82.02,118.36 82.42,119.3 82.81,120.22 83.21,121.12 83.61,122.02 84,122.92 84.4,123.81 84.8,124.7 85.19,125.59 85.59,126.49 85.99,127.39 86.38,128.29 86.78,129.19 87.18,130.09 87.58,130.99 87.97,131.88 88.37,132.76 88.77,133.63 89.16,134.49 89.56,135.34 89.96,136.17 90.35,136.99 90.75,137.79 91.15,138.59 91.54,139.37 91.94,140.14 92.34,140.9 92.73,141.67 93.13,142.43 93.53,143.2 93.93,143.97 94.32,144.75 94.72,145.54 95.12,146.34 95.51,147.16 95.91,148 96.31,148.85 96.7,149.71 97.1,150.59 97.5,151.48 97.89,152.39 98.29,153.31 98.69,154.24 99.08,155.18 99.48,156.14 99.88,157.11 100.28,158.1 100.67,159.09 101.07,160.1 101.47,161.13 101.86,162.16 102.26,163.21 102.66,164.27 103.05,165.34 103.45,166.42 103.85,167.5 104.24,168.58 104.64,169.66 105.04,170.73 105.43,171.79 105.83,172.84 106.23,173.86 106.63,174.87 107.02,175.84 107.42,176.79 107.82,177.7 108.21,178.58 108.61,179.43 109.01,180.25 109.4,181.04 109.8,181.8 110.2,182.54 110.59,183.27 110.99,183.98 111.39,184.68 111.78,185.38 112.18,186.09 112.58,186.8 112.98,187.52 113.37,188.25 113.77,189 114.17,189.76 114.56,190.55 114.96,191.34 115.36,192.15 115.75,192.98 116.15,193.81 116.55,194.64 116.94,195.48 117.34,196.31 117.74,197.14 118.13,197.96 118.53,198.76 118.93,199.54 119.33,200.31 119.72,201.05 120.12,201.77 120.52,202.46 120.91,203.13 121.31,203.78 121.71,204.41 122.1,205.02 122.5,205.6 122.9,206.17 123.29,206.72 123.69,207.26 124.09,207.78 124.48,208.29 124.88,208.78 125.28,209.27 125.68,209.74 126.07,210.21 126.47,210.66 126.87,211.11 127.26,211.54 127.66,211.96 128.06,212.37 128.45,212.77 128.85,213.15 129.25,213.52 129.64,213.87 130.04,214.21 130.44,214.53 130.83,214.83 131.23,215.12 131.63,215.39 132.03,215.64 132.42,215.87 132.82,216.09 133.22,216.29 133.61,216.48 134.01,216.66 134.41,216.81 134.8,216.95 135.2,217.08 135.6,217.18 135.99,217.26 136.39,217.32 136.79,217.35 137.18,217.36 137.58,217.35 137.98,217.31 138.38,217.25 138.77,217.16 139.17,217.05 139.57,216.92 139.96,216.78 140.36,216.63 140.76,216.48 141.15,216.32 141.55,216.16 141.95,216 142.34,215.86 142.74,215.72 143.14,215.59 143.53,215.47 143.93,215.36 144.33,215.25 144.73,215.15 145.12,215.04 145.52,214.93 145.92,214.81 146.31,214.67 146.71,214.51 147.11,214.33 147.5,214.13 147.9,213.9 148.3,213.63 148.69,213.34 149.09,213.01 149.49,212.66 149.88,212.29 150.28,211.89 150.68,211.47 151.08,211.04 151.47,210.59 151.87,210.13 152.27,209.66 152.66,209.19 153.06,208.71 153.46,208.22 153.85,207.73 154.25,207.24 154.65,206.73 155.04,206.21 155.44,205.67 155.84,205.11 156.23,204.53 156.63,203.93 157.03,203.3 157.43,202.63 157.82,201.94 158.22,201.21 158.62,200.45 159.01,199.66 159.41,198.85 159.81,198.02 160.2,197.18 160.6,196.33 161,195.48 161.39,194.64 161.79,193.82 162.19,193.02 162.58,192.25 162.98,191.51 163.38,190.82 163.78,190.18 164.17,189.58 164.57,189.04 164.97,188.55 165.36,188.1 165.76,187.69 166.16,187.32 166.55,186.99 166.95,186.69 167.35,186.4 167.74,186.13 168.14,185.86 168.54,185.59 168.93,185.31 169.33,185.02 169.73,184.7 170.13,184.36 170.52,183.98 170.92,183.57 171.32,183.13 171.71,182.65 172.11,182.14 172.51,181.59 172.9,181.02 173.3,180.4 173.7,179.76 174.09,179.09 174.49,178.4 174.89,177.68 175.28,176.95 175.68,176.19 176.08,175.41 176.48,174.61 176.87,173.8 177.27,172.96 177.67,172.1 178.06,171.22 178.46,170.32 178.86,169.39 179.25,168.44 179.65,167.46 180.05,166.46 180.44,165.43 180.84,164.38 181.24,163.3 181.63,162.21 182.03,161.09 182.43,159.96 182.83,158.81 183.22,157.65 183.62,156.49 184.02,155.33 184.41,154.17 184.81,153.02 185.21,151.87 185.6,150.74 186,149.63 186.4,148.53 186.79,147.45 187.19,146.39 187.59,145.36 187.98,144.34 188.38,143.35 188.78,142.38 189.18,141.44 189.57,140.52 189.97,139.62 190.37,138.73 190.76,137.87 191.16,137.02 191.56,136.19 191.95,135.37 192.35,134.55 192.75,133.75 193.14,132.94 193.54,132.14 193.94,131.33 194.33,130.52 194.73,129.71 195.13,128.88 195.53,128.05 195.92,127.2 196.32,126.34 196.72,125.47 197.11,124.6 197.51,123.71 197.91,122.82 198.3,121.91 198.7,121.01 199.1,120.11 199.49,119.2 199.89,118.3 200.29,117.4 200.68,116.51 201.08,115.62 201.48,114.74 201.88,113.87 202.27,113 202.67,112.14 203.07,111.28 203.46,110.43 203.86,109.58 204.26,108.74 204.65,107.91 205.05,107.08 205.45,106.26 205.84,105.44 206.24,104.64 206.64,103.84 207.03,103.06 207.43,102.29 207.83,101.54 208.23,100.8 208.62,100.08 209.02,99.37 209.42,98.69 209.81,98.01 210.21,97.35 210.61,96.71 211,96.07 211.4,95.45 211.8,94.84 212.19,94.23 212.59,93.63 212.99,93.04 213.38,92.45 213.78,91.87 214.18,91.3 214.58,90.74 214.97,90.18 215.37,89.63 215.77,89.1 216.16,88.58 216.56,88.07 216.96,87.58 217.35,87.1 217.75,86.64 218.15,86.19 218.54,85.76 218.94,85.33 219.34,84.91 219.73,84.5 220.13,84.09 220.53,83.68 220.93,83.27 221.32,82.85 221.72,82.43 222.12,82 222.51,81.56 222.91,81.12 223.31,80.67 223.7,80.2 224.1,79.74 224.5,79.26 224.89,78.79 225.29,78.31 225.69,77.84 226.08,77.37 226.48,76.9 226.88,76.45 227.28,76 227.67,75.56 228.07,75.14 228.47,74.72 228.86,74.32 229.26,73.94 229.66,73.56 230.05,73.2 230.45,72.86 230.85,72.53 231.24,72.22 231.64,71.92 232.04,71.65 232.43,71.38 232.83,71.14 233.23,70.92 233.63,70.72 234.02,70.53 234.42,70.36 234.82,70.2 235.21,70.06 235.61,69.93 236.01,69.81 236.4,69.69 236.8,69.58 237.2,69.47 237.59,69.36 237.99,69.24 238.39,69.11 238.78,68.98 239.18,68.84 239.58,68.68 239.98,68.52 240.37,68.35 240.77,68.17 241.17,67.98 241.56,67.79 241.96,67.59 242.36,67.38 242.75,67.17 243.15,66.96 243.55,66.74 243.94,66.52 244.34,66.29 244.74,66.05 245.13,65.8 245.53,65.54 245.93,65.26 246.33,64.96 246.72,64.64 247.12,64.29 247.52,63.93 247.91,63.53 248.31,63.11 248.71,62.66 249.1,62.19 249.5,61.7 249.9,61.19 250.29,60.67 250.69,60.15 251.09,59.62 251.48,59.1 251.88,58.6 252.28,58.11 252.68,57.64 253.07,57.19 253.47,56.78 253.87,56.39 254.26,56.04 254.66,55.72 255.06,55.44 255.45,55.19 255.85,54.98 256.25,54.79 256.64,54.63 257.04,54.49 257.44,54.38 257.83,54.29 258.23,54.21 258.63,54.15 259.03,54.11 259.42,54.07 259.82,54.04 260.22,54.02 260.61,54 261.01,53.99 261.41,53.98 261.8,53.97" stroke-dasharray="none" stroke="rgb(31,120,180)" stroke-width="0.75" opacity="1" stroke-opacity="1" fill="none"/>
          </g>
          <g id="Fig:densplot_01.xyplot.lines.group.10.panel.1.1.1">
            <polyline id="Fig:densplot_01.xyplot.lines.group.10.panel.1.1.1.1" points="59.03,54 59.43,54.01 59.83,54.04 60.22,54.07 60.62,54.11 61.02,54.17 61.41,54.25 61.81,54.35 62.21,54.47 62.6,54.63 63,54.82 63.4,55.07 63.79,55.37 64.19,55.73 64.59,56.17 64.98,56.68 65.38,57.28 65.78,57.97 66.17,58.76 66.57,59.67 66.97,60.69 67.36,61.82 67.76,63.06 68.16,64.41 68.55,65.86 68.95,67.4 69.35,69.04 69.75,70.76 70.14,72.54 70.54,74.38 70.94,76.25 71.33,78.14 71.73,80.04 72.13,81.95 72.52,83.84 72.92,85.71 73.32,87.54 73.71,89.34 74.11,91.1 74.51,92.81 74.9,94.48 75.3,96.1 75.7,97.68 76.09,99.21 76.49,100.7 76.89,102.15 77.28,103.56 77.68,104.95 78.08,106.3 78.47,107.61 78.87,108.9 79.27,110.15 79.66,111.38 80.06,112.57 80.46,113.74 80.85,114.87 81.25,115.97 81.65,117.04 82.04,118.08 82.44,119.09 82.84,120.07 83.23,121.03 83.63,121.96 84.03,122.87 84.42,123.76 84.82,124.63 85.22,125.48 85.62,126.32 86.01,127.14 86.41,127.95 86.81,128.75 87.2,129.54 87.6,130.32 88,131.09 88.39,131.85 88.79,132.59 89.19,133.33 89.58,134.06 89.98,134.78 90.38,135.5 90.77,136.21 91.17,136.91 91.57,137.62 91.96,138.33 92.36,139.04 92.76,139.75 93.15,140.48 93.55,141.21 93.95,141.96 94.34,142.71 94.74,143.48 95.14,144.26 95.53,145.05 95.93,145.85 96.33,146.65 96.72,147.46 97.12,148.27 97.52,149.09 97.91,149.9 98.31,150.71 98.71,151.53 99.1,152.34 99.5,153.16 99.9,153.97 100.3,154.79 100.69,155.62 101.09,156.45 101.49,157.3 101.88,158.15 102.28,159.03 102.68,159.92 103.07,160.82 103.47,161.75 103.87,162.69 104.26,163.65 104.66,164.62 105.06,165.6 105.45,166.58 105.85,167.58 106.25,168.57 106.64,169.56 107.04,170.55 107.44,171.54 107.83,172.51 108.23,173.48 108.63,174.44 109.02,175.39 109.42,176.33 109.82,177.28 110.21,178.22 110.61,179.16 111.01,180.1 111.4,181.05 111.8,182.01 112.2,182.98 112.59,183.95 112.99,184.93 113.39,185.92 113.78,186.91 114.18,187.9 114.58,188.89 114.97,189.88 115.37,190.86 115.77,191.82 116.17,192.76 116.56,193.68 116.96,194.57 117.36,195.42 117.75,196.24 118.15,197.02 118.55,197.76 118.94,198.46 119.34,199.13 119.74,199.75 120.13,200.33 120.53,200.89 120.93,201.42 121.32,201.93 121.72,202.43 122.12,202.92 122.51,203.4 122.91,203.88 123.31,204.37 123.7,204.87 124.1,205.37 124.5,205.88 124.89,206.4 125.29,206.92 125.69,207.43 126.08,207.95 126.48,208.45 126.88,208.94 127.27,209.41 127.67,209.85 128.07,210.28 128.46,210.67 128.86,211.05 129.26,211.39 129.65,211.7 130.05,212 130.45,212.27 130.85,212.54 131.24,212.79 131.64,213.04 132.04,213.28 132.43,213.53 132.83,213.78 133.23,214.04 133.62,214.3 134.02,214.58 134.42,214.86 134.81,215.15 135.21,215.45 135.61,215.75 136,216.04 136.4,216.34 136.8,216.62 137.19,216.9 137.59,217.17 137.99,217.42 138.38,217.65 138.78,217.86 139.18,218.04 139.57,218.2 139.97,218.33 140.37,218.44 140.76,218.51 141.16,218.55 141.56,218.56 141.95,218.53 142.35,218.46 142.75,218.36 143.14,218.22 143.54,218.05 143.94,217.84 144.33,217.6 144.73,217.34 145.13,217.05 145.52,216.74 145.92,216.42 146.32,216.08 146.72,215.75 147.11,215.41 147.51,215.07 147.91,214.75 148.3,214.42 148.7,214.11 149.1,213.81 149.49,213.52 149.89,213.23 150.29,212.94 150.68,212.66 151.08,212.37 151.48,212.09 151.87,211.79 152.27,211.48 152.67,211.17 153.06,210.84 153.46,210.49 153.86,210.13 154.25,209.76 154.65,209.36 155.05,208.95 155.44,208.52 155.84,208.07 156.24,207.6 156.63,207.1 157.03,206.58 157.43,206.03 157.82,205.44 158.22,204.82 158.62,204.17 159.01,203.49 159.41,202.78 159.81,202.04 160.2,201.28 160.6,200.5 161,199.71 161.4,198.91 161.79,198.12 162.19,197.35 162.59,196.6 162.98,195.87 163.38,195.19 163.78,194.54 164.17,193.96 164.57,193.42 164.97,192.93 165.36,192.49 165.76,192.1 166.16,191.75 166.55,191.45 166.95,191.18 167.35,190.94 167.74,190.73 168.14,190.52 168.54,190.32 168.93,190.11 169.33,189.9 169.73,189.67 170.12,189.41 170.52,189.11 170.92,188.77 171.31,188.39 171.71,187.97 172.11,187.48 172.5,186.95 172.9,186.35 173.3,185.69 173.69,184.97 174.09,184.19 174.49,183.36 174.88,182.48 175.28,181.55 175.68,180.58 176.08,179.57 176.47,178.52 176.87,177.45 177.27,176.36 177.66,175.24 178.06,174.12 178.46,172.98 178.85,171.84 179.25,170.69 179.65,169.54 180.04,168.38 180.44,167.22 180.84,166.06 181.23,164.89 181.63,163.72 182.03,162.54 182.42,161.37 182.82,160.18 183.22,159 183.61,157.81 184.01,156.63 184.41,155.45 184.8,154.27 185.2,153.1 185.6,151.95 185.99,150.82 186.39,149.7 186.79,148.61 187.18,147.55 187.58,146.51 187.98,145.51 188.37,144.54 188.77,143.61 189.17,142.71 189.56,141.84 189.96,141 190.36,140.18 190.75,139.38 191.15,138.6 191.55,137.82 191.95,137.05 192.34,136.26 192.74,135.47 193.14,134.66 193.53,133.83 193.93,132.97 194.33,132.08 194.72,131.15 195.12,130.2 195.52,129.21 195.91,128.19 196.31,127.14 196.71,126.07 197.1,124.99 197.5,123.9 197.9,122.8 198.29,121.7 198.69,120.61 199.09,119.53 199.48,118.47 199.88,117.43 200.28,116.42 200.67,115.42 201.07,114.46 201.47,113.52 201.86,112.61 202.26,111.72 202.66,110.84 203.05,109.99 203.45,109.15 203.85,108.32 204.24,107.49 204.64,106.67 205.04,105.86 205.43,105.05 205.83,104.24 206.23,103.43 206.63,102.62 207.02,101.82 207.42,101.02 207.82,100.23 208.21,99.46 208.61,98.69 209.01,97.95 209.4,97.22 209.8,96.52 210.2,95.83 210.59,95.18 210.99,94.55 211.39,93.95 211.78,93.38 212.18,92.83 212.58,92.3 212.97,91.8 213.37,91.32 213.77,90.85 214.16,90.4 214.56,89.96 214.96,89.53 215.35,89.1 215.75,88.66 216.15,88.23 216.54,87.79 216.94,87.34 217.34,86.88 217.73,86.41 218.13,85.93 218.53,85.44 218.92,84.94 219.32,84.43 219.72,83.91 220.11,83.39 220.51,82.88 220.91,82.36 221.3,81.85 221.7,81.35 222.1,80.86 222.5,80.37 222.89,79.9 223.29,79.45 223.69,79.01 224.08,78.58 224.48,78.17 224.88,77.77 225.27,77.39 225.67,77.01 226.07,76.65 226.46,76.29 226.86,75.95 227.26,75.6 227.65,75.27 228.05,74.93 228.45,74.6 228.84,74.27 229.24,73.94 229.64,73.62 230.03,73.29 230.43,72.97 230.83,72.64 231.22,72.33 231.62,72.01 232.02,71.7 232.41,71.39 232.81,71.1 233.21,70.81 233.6,70.54 234,70.28 234.4,70.03 234.79,69.8 235.19,69.59 235.59,69.39 235.98,69.21 236.38,69.05 236.78,68.91 237.18,68.79 237.57,68.68 237.97,68.58 238.37,68.51 238.76,68.44 239.16,68.38 239.56,68.34 239.95,68.3 240.35,68.27 240.75,68.25 241.14,68.23 241.54,68.2 241.94,68.18 242.33,68.15 242.73,68.11 243.13,68.05 243.52,67.98 243.92,67.89 244.32,67.77 244.71,67.63 245.11,67.45 245.51,67.23 245.9,66.97 246.3,66.67 246.7,66.32 247.09,65.93 247.49,65.5 247.89,65.02 248.28,64.51 248.68,63.96 249.08,63.37 249.47,62.77 249.87,62.14 250.27,61.51 250.66,60.88 251.06,60.25 251.46,59.63 251.85,59.04 252.25,58.47 252.65,57.93 253.05,57.42 253.44,56.95 253.84,56.53 254.24,56.14 254.63,55.79 255.03,55.49 255.43,55.22 255.82,54.99 256.22,54.8 256.62,54.63 257.01,54.49 257.41,54.38 257.81,54.28 258.2,54.21 258.6,54.15 259,54.1 259.39,54.06 259.79,54.03 260.19,54.01 260.58,54 260.98,53.98 261.38,53.98 261.77,53.97" stroke-dasharray="none" stroke="rgb(31,120,180)" stroke-width="0.75" opacity="1" stroke-opacity="1" fill="none"/>
          </g>
          <g id="Fig:densplot_01.xyplot.lines.group.11.panel.1.1.1">
            <polyline id="Fig:densplot_01.xyplot.lines.group.11.panel.1.1.1.1" points="59.05,53.99 59.45,54.01 59.84,54.03 60.24,54.06 60.64,54.1 61.03,54.15 61.43,54.22 61.83,54.31 62.22,54.43 62.62,54.57 63.02,54.75 63.41,54.98 63.81,55.27 64.21,55.61 64.6,56.02 65,56.5 65.4,57.06 65.79,57.72 66.19,58.47 66.59,59.33 66.99,60.3 67.38,61.38 67.78,62.56 68.18,63.84 68.57,65.22 68.97,66.69 69.37,68.26 69.76,69.9 70.16,71.6 70.56,73.35 70.95,75.13 71.35,76.93 71.75,78.74 72.14,80.55 72.54,82.34 72.94,84.11 73.33,85.84 73.73,87.54 74.13,89.2 74.52,90.81 74.92,92.39 75.32,93.94 75.71,95.44 76.11,96.92 76.51,98.37 76.9,99.8 77.3,101.22 77.7,102.63 78.09,104.03 78.49,105.43 78.89,106.83 79.28,108.22 79.68,109.61 80.08,110.99 80.47,112.35 80.87,113.71 81.27,115.04 81.66,116.35 82.06,117.62 82.46,118.86 82.85,120.05 83.25,121.2 83.65,122.3 84.04,123.35 84.44,124.35 84.84,125.3 85.23,126.2 85.63,127.04 86.03,127.85 86.42,128.61 86.82,129.34 87.22,130.05 87.61,130.73 88.01,131.39 88.41,132.05 88.8,132.7 89.2,133.36 89.6,134.03 89.99,134.71 90.39,135.42 90.79,136.14 91.18,136.89 91.58,137.66 91.98,138.46 92.37,139.29 92.77,140.14 93.17,141 93.56,141.89 93.96,142.79 94.36,143.69 94.75,144.61 95.15,145.53 95.55,146.44 95.94,147.35 96.34,148.25 96.74,149.15 97.13,150.04 97.53,150.92 97.93,151.79 98.32,152.66 98.72,153.52 99.12,154.38 99.51,155.24 99.91,156.11 100.31,156.97 100.7,157.85 101.1,158.74 101.5,159.64 101.89,160.55 102.29,161.47 102.69,162.4 103.09,163.34 103.48,164.3 103.88,165.25 104.28,166.22 104.67,167.19 105.07,168.16 105.47,169.14 105.86,170.11 106.26,171.08 106.66,172.05 107.05,173.01 107.45,173.96 107.85,174.92 108.24,175.86 108.64,176.8 109.04,177.74 109.43,178.68 109.83,179.61 110.23,180.54 110.62,181.47 111.02,182.4 111.42,183.33 111.81,184.27 112.21,185.2 112.61,186.14 113,187.09 113.4,188.03 113.8,188.99 114.19,189.94 114.59,190.89 114.99,191.85 115.38,192.8 115.78,193.75 116.18,194.7 116.57,195.64 116.97,196.57 117.37,197.48 117.76,198.39 118.16,199.28 118.56,200.15 118.95,200.99 119.35,201.82 119.75,202.61 120.14,203.37 120.54,204.1 120.94,204.79 121.33,205.44 121.73,206.05 122.13,206.62 122.52,207.16 122.92,207.64 123.32,208.08 123.71,208.49 124.11,208.85 124.51,209.18 124.9,209.47 125.3,209.73 125.7,209.96 126.09,210.17 126.49,210.35 126.89,210.52 127.28,210.69 127.68,210.84 128.08,210.99 128.47,211.15 128.87,211.31 129.27,211.47 129.66,211.65 130.06,211.84 130.46,212.05 130.85,212.27 131.25,212.5 131.65,212.74 132.04,213 132.44,213.27 132.84,213.55 133.23,213.83 133.63,214.11 134.03,214.39 134.42,214.66 134.82,214.93 135.22,215.18 135.61,215.42 136.01,215.63 136.41,215.83 136.8,216 137.2,216.15 137.6,216.27 138,216.38 138.39,216.46 138.79,216.51 139.19,216.55 139.58,216.57 139.98,216.58 140.38,216.59 140.77,216.58 141.17,216.57 141.57,216.56 141.96,216.55 142.36,216.53 142.76,216.52 143.15,216.5 143.55,216.48 143.95,216.46 144.34,216.43 144.74,216.39 145.14,216.34 145.53,216.27 145.93,216.19 146.33,216.09 146.72,215.97 147.12,215.83 147.52,215.67 147.91,215.48 148.31,215.27 148.71,215.03 149.1,214.77 149.5,214.49 149.9,214.17 150.29,213.84 150.69,213.47 151.09,213.08 151.48,212.66 151.88,212.22 152.28,211.75 152.67,211.26 153.07,210.74 153.47,210.21 153.86,209.66 154.26,209.1 154.66,208.52 155.05,207.93 155.45,207.34 155.85,206.74 156.24,206.14 156.64,205.53 157.04,204.92 157.43,204.31 157.83,203.7 158.23,203.08 158.62,202.46 159.02,201.83 159.42,201.2 159.81,200.56 160.21,199.91 160.61,199.26 161,198.6 161.4,197.94 161.8,197.28 162.19,196.63 162.59,195.98 162.99,195.35 163.38,194.74 163.78,194.14 164.18,193.57 164.57,193.02 164.97,192.51 165.37,192.01 165.76,191.55 166.16,191.11 166.56,190.69 166.95,190.29 167.35,189.91 167.75,189.53 168.14,189.15 168.54,188.76 168.94,188.37 169.33,187.96 169.73,187.53 170.13,187.07 170.52,186.58 170.92,186.06 171.32,185.52 171.71,184.94 172.11,184.33 172.51,183.68 172.9,183.01 173.3,182.31 173.7,181.58 174.1,180.83 174.49,180.05 174.89,179.24 175.29,178.42 175.68,177.57 176.08,176.7 176.48,175.8 176.87,174.88 177.27,173.94 177.67,172.97 178.06,171.99 178.46,170.98 178.86,169.95 179.25,168.9 179.65,167.84 180.05,166.76 180.44,165.67 180.84,164.58 181.24,163.48 181.63,162.39 182.03,161.3 182.43,160.22 182.82,159.15 183.22,158.09 183.62,157.04 184.01,156 184.41,154.98 184.81,153.96 185.2,152.95 185.6,151.95 186,150.95 186.39,149.95 186.79,148.95 187.19,147.95 187.58,146.94 187.98,145.94 188.38,144.93 188.77,143.93 189.17,142.93 189.57,141.93 189.96,140.95 190.36,139.97 190.76,139.01 191.15,138.06 191.55,137.13 191.95,136.21 192.34,135.29 192.74,134.39 193.14,133.49 193.53,132.58 193.93,131.67 194.33,130.76 194.72,129.84 195.12,128.9 195.52,127.95 195.91,126.99 196.31,126.02 196.71,125.04 197.1,124.05 197.5,123.07 197.9,122.1 198.29,121.13 198.69,120.17 199.09,119.24 199.48,118.32 199.88,117.43 200.28,116.56 200.67,115.71 201.07,114.89 201.47,114.08 201.86,113.29 202.26,112.52 202.66,111.75 203.05,110.99 203.45,110.22 203.85,109.46 204.24,108.69 204.64,107.91 205.04,107.13 205.43,106.33 205.83,105.52 206.23,104.7 206.62,103.88 207.02,103.04 207.42,102.21 207.81,101.37 208.21,100.55 208.61,99.73 209.01,98.92 209.4,98.13 209.8,97.37 210.2,96.62 210.59,95.9 210.99,95.21 211.39,94.55 211.78,93.91 212.18,93.3 212.58,92.72 212.97,92.16 213.37,91.63 213.77,91.11 214.16,90.61 214.56,90.13 214.96,89.66 215.35,89.19 215.75,88.73 216.15,88.27 216.54,87.81 216.94,87.34 217.34,86.88 217.73,86.4 218.13,85.93 218.53,85.44 218.92,84.95 219.32,84.45 219.72,83.94 220.11,83.44 220.51,82.92 220.91,82.41 221.3,81.9 221.7,81.39 222.1,80.89 222.49,80.39 222.89,79.9 223.29,79.42 223.68,78.95 224.08,78.5 224.48,78.05 224.87,77.63 225.27,77.21 225.67,76.82 226.06,76.43 226.46,76.06 226.86,75.7 227.25,75.36 227.65,75.03 228.05,74.7 228.44,74.39 228.84,74.08 229.24,73.78 229.63,73.48 230.03,73.19 230.43,72.9 230.82,72.62 231.22,72.34 231.62,72.06 232.01,71.79 232.41,71.52 232.81,71.27 233.2,71.02 233.6,70.78 234,70.55 234.39,70.34 234.79,70.13 235.19,69.95 235.58,69.78 235.98,69.62 236.38,69.49 236.77,69.37 237.17,69.26 237.57,69.17 237.96,69.09 238.36,69.02 238.76,68.96 239.15,68.9 239.55,68.85 239.95,68.79 240.34,68.74 240.74,68.68 241.14,68.62 241.53,68.54 241.93,68.45 242.33,68.35 242.72,68.23 243.12,68.09 243.52,67.93 243.92,67.75 244.31,67.54 244.71,67.31 245.11,67.05 245.5,66.76 245.9,66.43 246.3,66.08 246.69,65.69 247.09,65.27 247.49,64.83 247.88,64.35 248.28,63.85 248.68,63.32 249.07,62.77 249.47,62.2 249.87,61.63 250.26,61.05 250.66,60.47 251.06,59.89 251.45,59.33 251.85,58.78 252.25,58.26 252.64,57.76 253.04,57.29 253.44,56.86 253.83,56.46 254.23,56.09 254.63,55.76 255.02,55.47 255.42,55.22 255.82,55 256.21,54.81 256.61,54.64 257.01,54.5 257.4,54.39 257.8,54.29 258.2,54.22 258.59,54.16 258.99,54.11 259.39,54.07 259.78,54.04 260.18,54.02 260.58,54 260.97,53.99 261.37,53.98 261.77,53.97" stroke-dasharray="none" stroke="rgb(31,120,180)" stroke-width="0.75" opacity="1" stroke-opacity="1" fill="none"/>
          </g>
          <g id="Fig:densplot_01.xyplot.lines.group.12.panel.1.1.1">
            <polyline id="Fig:densplot_01.xyplot.lines.group.12.panel.1.1.1.1" points="59.19,53.99 59.59,54.01 59.99,54.04 60.38,54.07 60.78,54.12 61.17,54.18 61.57,54.25 61.97,54.36 62.36,54.49 62.76,54.66 63.15,54.87 63.55,55.13 63.95,55.45 64.34,55.84 64.74,56.3 65.13,56.84 65.53,57.49 65.93,58.24 66.32,59.1 66.72,60.07 67.11,61.15 67.51,62.34 67.91,63.65 68.3,65.07 68.7,66.59 69.09,68.22 69.49,69.92 69.89,71.69 70.28,73.5 70.68,75.36 71.07,77.23 71.47,79.11 71.87,80.98 72.26,82.82 72.66,84.63 73.05,86.39 73.45,88.1 73.85,89.75 74.24,91.34 74.64,92.87 75.03,94.33 75.43,95.73 75.83,97.07 76.22,98.37 76.62,99.62 77.01,100.82 77.41,102 77.81,103.14 78.2,104.25 78.6,105.34 78.99,106.41 79.39,107.46 79.79,108.49 80.18,109.5 80.58,110.5 80.97,111.49 81.37,112.46 81.77,113.41 82.16,114.34 82.56,115.26 82.95,116.16 83.35,117.05 83.75,117.91 84.14,118.76 84.54,119.59 84.93,120.4 85.33,121.19 85.73,121.96 86.12,122.72 86.52,123.45 86.91,124.17 87.31,124.87 87.71,125.56 88.1,126.23 88.5,126.88 88.89,127.52 89.29,128.15 89.69,128.77 90.08,129.38 90.48,129.99 90.87,130.59 91.27,131.19 91.67,131.8 92.06,132.41 92.46,133.02 92.85,133.65 93.25,134.28 93.65,134.93 94.04,135.6 94.44,136.28 94.83,136.98 95.23,137.71 95.63,138.46 96.02,139.22 96.42,140.02 96.81,140.84 97.21,141.68 97.61,142.55 98,143.45 98.4,144.37 98.79,145.3 99.19,146.26 99.59,147.23 99.98,148.22 100.38,149.22 100.77,150.23 101.17,151.24 101.57,152.25 101.96,153.25 102.36,154.26 102.75,155.26 103.15,156.25 103.55,157.23 103.94,158.2 104.34,159.16 104.73,160.11 105.13,161.05 105.53,161.98 105.92,162.9 106.32,163.82 106.71,164.72 107.11,165.62 107.51,166.52 107.9,167.41 108.3,168.3 108.69,169.2 109.09,170.09 109.49,170.99 109.88,171.89 110.28,172.8 110.68,173.71 111.07,174.63 111.47,175.56 111.86,176.49 112.26,177.42 112.66,178.35 113.05,179.29 113.45,180.22 113.84,181.15 114.24,182.07 114.64,182.98 115.03,183.87 115.43,184.75 115.82,185.62 116.22,186.46 116.62,187.29 117.01,188.1 117.41,188.9 117.8,189.68 118.2,190.45 118.6,191.2 118.99,191.95 119.39,192.68 119.78,193.4 120.18,194.12 120.58,194.83 120.97,195.53 121.37,196.22 121.76,196.89 122.16,197.56 122.56,198.22 122.95,198.86 123.35,199.48 123.74,200.1 124.14,200.7 124.54,201.29 124.93,201.87 125.33,202.44 125.72,203 126.12,203.55 126.52,204.1 126.91,204.64 127.31,205.17 127.7,205.71 128.1,206.23 128.5,206.76 128.89,207.27 129.29,207.78 129.68,208.28 130.08,208.76 130.48,209.24 130.87,209.71 131.27,210.16 131.66,210.6 132.06,211.02 132.46,211.44 132.85,211.84 133.25,212.24 133.64,212.63 134.04,213.01 134.44,213.39 134.83,213.77 135.23,214.14 135.62,214.51 136.02,214.88 136.42,215.25 136.81,215.62 137.21,215.99 137.6,216.35 138,216.7 138.4,217.05 138.79,217.38 139.19,217.7 139.58,218 139.98,218.28 140.38,218.54 140.77,218.78 141.17,219 141.56,219.19 141.96,219.36 142.36,219.5 142.75,219.62 143.15,219.72 143.54,219.8 143.94,219.85 144.34,219.89 144.73,219.9 145.13,219.89 145.52,219.86 145.92,219.81 146.32,219.74 146.71,219.65 147.11,219.53 147.5,219.39 147.9,219.22 148.3,219.02 148.69,218.79 149.09,218.54 149.48,218.26 149.88,217.96 150.28,217.64 150.67,217.3 151.07,216.95 151.46,216.59 151.86,216.23 152.26,215.86 152.65,215.51 153.05,215.16 153.44,214.83 153.84,214.51 154.24,214.21 154.63,213.93 155.03,213.66 155.42,213.4 155.82,213.16 156.22,212.92 156.61,212.68 157.01,212.44 157.4,212.19 157.8,211.92 158.2,211.62 158.59,211.31 158.99,210.97 159.38,210.6 159.78,210.2 160.18,209.77 160.57,209.31 160.97,208.83 161.36,208.32 161.76,207.8 162.16,207.27 162.55,206.73 162.95,206.2 163.34,205.67 163.74,205.15 164.14,204.65 164.53,204.17 164.93,203.71 165.32,203.27 165.72,202.86 166.12,202.48 166.51,202.11 166.91,201.77 167.3,201.44 167.7,201.12 168.1,200.8 168.49,200.48 168.89,200.15 169.28,199.8 169.68,199.42 170.08,199.02 170.47,198.58 170.87,198.1 171.26,197.59 171.66,197.03 172.06,196.43 172.45,195.8 172.85,195.13 173.24,194.42 173.64,193.68 174.04,192.91 174.43,192.12 174.83,191.31 175.22,190.47 175.62,189.61 176.02,188.73 176.41,187.81 176.81,186.87 177.2,185.9 177.6,184.89 178,183.85 178.39,182.77 178.79,181.65 179.18,180.49 179.58,179.29 179.98,178.05 180.37,176.79 180.77,175.5 181.16,174.18 181.56,172.85 181.96,171.51 182.35,170.15 182.75,168.8 183.14,167.44 183.54,166.09 183.94,164.74 184.33,163.39 184.73,162.05 185.12,160.72 185.52,159.4 185.92,158.08 186.31,156.77 186.71,155.47 187.11,154.18 187.5,152.9 187.9,151.64 188.29,150.38 188.69,149.14 189.09,147.92 189.48,146.72 189.88,145.53 190.27,144.36 190.67,143.2 191.07,142.06 191.46,140.93 191.86,139.81 192.25,138.7 192.65,137.59 193.05,136.49 193.44,135.4 193.84,134.3 194.23,133.2 194.63,132.1 195.03,131 195.42,129.9 195.82,128.79 196.21,127.69 196.61,126.58 197.01,125.48 197.4,124.37 197.8,123.28 198.19,122.18 198.59,121.1 198.99,120.03 199.38,118.96 199.78,117.91 200.17,116.87 200.57,115.84 200.97,114.82 201.36,113.82 201.76,112.82 202.15,111.83 202.55,110.85 202.95,109.87 203.34,108.9 203.74,107.93 204.13,106.97 204.53,106.01 204.93,105.06 205.32,104.11 205.72,103.18 206.11,102.25 206.51,101.35 206.91,100.46 207.3,99.6 207.7,98.76 208.09,97.95 208.49,97.17 208.89,96.43 209.28,95.72 209.68,95.05 210.07,94.41 210.47,93.8 210.87,93.22 211.26,92.67 211.66,92.14 212.05,91.63 212.45,91.13 212.85,90.65 213.24,90.16 213.64,89.68 214.03,89.19 214.43,88.69 214.83,88.17 215.22,87.64 215.62,87.1 216.01,86.53 216.41,85.95 216.81,85.36 217.2,84.75 217.6,84.14 217.99,83.52 218.39,82.9 218.79,82.28 219.18,81.68 219.58,81.09 219.97,80.51 220.37,79.97 220.77,79.44 221.16,78.95 221.56,78.5 221.95,78.07 222.35,77.67 222.75,77.3 223.14,76.95 223.54,76.63 223.93,76.33 224.33,76.05 224.73,75.78 225.12,75.52 225.52,75.27 225.91,75.02 226.31,74.76 226.71,74.51 227.1,74.25 227.5,73.98 227.89,73.71 228.29,73.43 228.69,73.14 229.08,72.85 229.48,72.55 229.87,72.25 230.27,71.94 230.67,71.64 231.06,71.34 231.46,71.05 231.85,70.77 232.25,70.5 232.65,70.24 233.04,69.99 233.44,69.77 233.83,69.56 234.23,69.37 234.63,69.21 235.02,69.07 235.42,68.95 235.81,68.85 236.21,68.77 236.61,68.71 237,68.67 237.4,68.64 237.79,68.63 238.19,68.62 238.59,68.62 238.98,68.62 239.38,68.62 239.77,68.61 240.17,68.6 240.57,68.58 240.96,68.54 241.36,68.49 241.75,68.43 242.15,68.34 242.55,68.23 242.94,68.09 243.34,67.93 243.73,67.74 244.13,67.51 244.53,67.26 244.92,66.97 245.32,66.65 245.71,66.3 246.11,65.91 246.51,65.48 246.9,65.03 247.3,64.54 247.69,64.03 248.09,63.49 248.49,62.94 248.88,62.37 249.28,61.78 249.67,61.2 250.07,60.61 250.47,60.03 250.86,59.46 251.26,58.91 251.65,58.38 252.05,57.87 252.45,57.4 252.84,56.96 253.24,56.55 253.63,56.18 254.03,55.85 254.43,55.55 254.82,55.28 255.22,55.05 255.61,54.85 256.01,54.68 256.41,54.54 256.8,54.42 257.2,54.32 257.59,54.24 257.99,54.17 258.39,54.12 258.78,54.08 259.18,54.05 259.57,54.02 259.97,54 260.37,53.99 260.76,53.98 261.16,53.97 261.55,53.97" stroke-dasharray="none" stroke="rgb(31,120,180)" stroke-width="0.75" opacity="1" stroke-opacity="1" fill="none"/>
          </g>
        </g>
        <g id="Fig:densplot_01.panel.1.1.off.vp.2">
          <g id="Fig:densplot_01.border.panel.1.1.1">
            <rect id="Fig:densplot_01.border.panel.1.1.1.1" x="44.8" y="42.19" width="231.2" height="191.81" transform="" stroke="rgb(0,0,0)" stroke-dasharray="none" stroke-width="0.75" opacity="1" fill="none" stroke-opacity="1" fill-opacity="0"/>
          </g>
        </g>
        <g id="Fig:densplot_01..1"/>
      </g>
    </g>
  </g>
</svg>